<?xml version="1.0" encoding="utf-8"?>
<!-- Generator: Adobe Illustrator 26.0.1, SVG Export Plug-In . SVG Version: 6.00 Build 0)  -->
<svg version="1.1" id="Calque_1" xmlns="http://www.w3.org/2000/svg" xmlns:xlink="http://www.w3.org/1999/xlink" x="0px" y="0px"
	 viewBox="0 0 813.3 791.7" style="enable-background:new 0 0 813.3 791.7;" xml:space="preserve">
<style type="text/css">
	.st0{fill:#3F3D56;}
	.st1{fill:#A5D7E8;}
	.st2{fill:#E5E5E5;}
	.st3{opacity:0.2;enable-background:new    ;}
	.st4{fill:#CBCBCB;}
	.st5{fill:#9AC39A;}
	.st6{fill:#FFB7B7;}
	.st7{fill:#2F2E41;}
</style>
<path class="st0" d="M722.3,699.9c0,0,0.6-13,13.4-11.5"/>
<circle class="st1" cx="718.7" cy="681.1" r="6.4"/>
<rect x="717.6" y="691.9" class="st0" width="1.8" height="12.6"/>
<path class="st2" d="M289.2,316.9c0,3.2-0.1,6.4-0.3,9.5c-1.2,18.1-5.7,35.8-13.5,52.2c-0.1,0.1-0.1,0.3-0.2,0.4
	c-0.4,0.8-0.7,1.5-1.1,2.3c-2.3,4.6-4.9,9.1-7.6,13.5c-25.9,40.6-70.4,65.6-118.6,66.7l1.4,82.2l18.6-9.8l3.3,6.3l-21.8,11.5
	l2.7,152.7l0,2l-14.4,3.2l0-2l4.5-246.2c-38.6-0.6-75.3-16.5-102-44.4c-0.9-0.9-1.8-1.9-2.7-2.9c0,0-0.1-0.1-0.1-0.1
	c-11-12-19.9-25.8-26.3-40.8c0.1,0.2,0.3,0.3,0.4,0.5c-30.1-70.5-0.1-152.2,68.6-186.4c0.5-0.2,1-0.5,1.5-0.7
	c67.8-32.7,149.3-7.9,187.5,56.9c0.9,1.5,1.7,3,2.6,4.5C283.3,269.3,289.2,292.9,289.2,316.9z"/>
<circle class="st1" cx="269.8" cy="189.5" r="189.5"/>
<path class="st3" d="M129.8,62.9c-41.2,96.3,3.5,207.7,99.8,248.8c74.9,32,161.9,12.6,216-48.2c-41.1,96.3-152.5,140.9-248.8,99.8
	S55.9,210.8,97,114.5C105.1,95.7,116.2,78.3,129.8,62.9z"/>
<polygon class="st0" points="280,717.6 260.6,712.1 260.7,710 266.5,394.8 266.8,379 266.8,378.6 267.8,323.5 269.3,243.7 
	269.3,243.7 270.3,189.5 270.8,189.5 271.8,248.2 273.1,324.5 274.1,378.6 274.1,379 274.1,381.3 274.1,381.3 276,486.8 
	276.2,497.3 280,715.5 "/>
<rect x="269.2" y="481.7" transform="matrix(0.8849 -0.4659 0.4659 0.8849 -193.5305 189.6709)" class="st0" width="35.4" height="9.4"/>
<rect x="176.7" y="755.7" class="st4" width="89.4" height="2"/>
<rect x="340.7" y="789.7" class="st4" width="89.4" height="2"/>
<rect x="595.7" y="763.7" class="st4" width="89.4" height="2"/>
<path class="st5" d="M644.2,682.3v-58.2C644.2,624.2,666.9,665.4,644.2,682.3z"/>
<path class="st5" d="M645.6,682.3L602.8,643C602.8,643,648.5,654.2,645.6,682.3z"/>
<path class="st5" d="M201.2,696.3v-58.2C201.2,638.2,223.9,679.4,201.2,696.3z"/>
<path class="st5" d="M202.6,696.3L159.8,657C159.8,657,205.5,668.2,202.6,696.3z"/>
<path class="st5" d="M355.2,738.3V666C355.2,666,383.4,717.3,355.2,738.3z"/>
<path class="st5" d="M357,738.3l-53.3-48.9C303.7,689.4,360.5,703.3,357,738.3z"/>
<polygon class="st4" points="813.3,729.5 812.8,731.4 644.9,683.6 518.5,711.5 356.8,739.1 356.6,739 280,717.6 260.6,712.1 
	201.5,695.5 152.2,706.5 137.8,709.7 106.4,716.7 106,714.8 137.8,707.7 152.2,704.5 201.6,693.5 201.8,693.5 260.7,710 280,715.5 
	356.9,737.1 518.1,709.5 645,681.6 645.2,681.6 "/>
<path class="st0" d="M513.1,121.4l12.8-10.2c-9.9-1.1-14,4.3-15.7,8.6c-7.8-3.2-16.2,1-16.2,1l25.6,9.3
	C518.2,126.7,516,123.7,513.1,121.4z"/>
<path class="st0" d="M43.1,117.4l12.8-10.2c-9.9-1.1-14,4.3-15.7,8.6c-7.8-3.2-16.2,1-16.2,1l25.6,9.3
	C48.2,122.7,46,119.7,43.1,117.4z"/>
<path class="st0" d="M485.1,312.4l12.8-10.2c-9.9-1.1-14,4.3-15.7,8.6c-7.8-3.2-16.2,1-16.2,1l25.6,9.3
	C490.2,317.7,488,314.7,485.1,312.4z"/>
<polygon class="st6" points="398.2,752.6 407.9,756.2 426.6,720.2 412.2,714.9 "/>
<path class="st7" d="M396.8,748.5l19.3,7.2l0,0c6.8,2.5,10.2,10.1,7.7,16.8l-0.1,0.4l-31.5-11.7L396.8,748.5z"/>
<polygon class="st6" points="494.4,762.7 504.8,762.7 509.8,722.5 494.4,722.5 "/>
<path class="st7" d="M492.6,759.3l20.5,0h0c7.2,0,13.1,5.9,13.1,13.1v0.4l-33.6,0L492.6,759.3z"/>
<path class="st7" d="M446.6,483.7l3.4-6.8l28.9,14.5l-0.9,6l5.5,7.2c0,0,9.4,5.1,7.7,22.1l-1.7,16.2l-2.1,20.8l14.9,51.5l7.7,68.1
	l5.5,54.9l-26.8-1.3l-24.7-89.3l-43.4,96.2l-29.8-7.7l40.8-95.3l5.1-40c0,0-3.4-21.3,12.8-35.7l-2.6-7.7v-9.4l-8.5-45L446.6,483.7z"
	/>
<rect x="454.2" y="579.8" transform="matrix(0.9624 -0.2715 0.2715 0.9624 -149.6781 146.5033)" class="st3" width="1" height="69"/>
<rect x="447.5" y="563.7" class="st0" width="41.7" height="4.3"/>
<ellipse class="st0" cx="489.2" cy="566.2" rx="1.7" ry="4.3"/>
<ellipse transform="matrix(0.4797 -0.8775 0.8775 0.4797 -152.5191 648.3182)" class="st6" cx="470.4" cy="452.8" rx="22.7" ry="22.7"/>
<circle class="st7" cx="435.7" cy="424.6" r="20.1"/>
<path class="st7" d="M410.2,422.4c-3.2,10.6,2.9,21.8,13.5,25s21.8-2.9,25-13.5c0.3-1.1,0.5-2.1,0.7-3.2
	c-3.2,10.6-14.3,16.7-25,13.5C415,441.4,409,432.2,410.2,422.4z"/>
<path class="st7" d="M489.5,446.5c1.5,13-7.9,24.8-20.9,26.2c-13,1.5-24.8-7.9-26.2-20.9c-1.5-13,7.9-24.8,20.9-26.2
	c4.1-0.5,8.3,0.2,12.1,1.8c4-3.2,8.9-2.2,12.9,1.2c4.5,3.8,5.9,6.4,9.4,12.7C494.1,441.7,492.9,446,489.5,446.5z"/>
<path class="st1" d="M406.1,514.7c0.3,6.7,0.8,20,0.8,20.6c0,0.7,10,21.5,14.4,30.4v0c0.3,0.6,0.6,1.2,0.8,1.7
	c0.7,1.4,2.1,2.3,3.7,2.3l18.9-0.3c2.2,0,3.9-1.8,4-3.9l2.1-83.3c0-1.1-0.9-2.1-2-2.1c0,0,0,0-0.1,0h-24.4c-2.1,0-4,1.2-4.9,3.1
	l-11.7,24.2C406.5,509.6,406,512.1,406.1,514.7L406.1,514.7z"/>
<path class="st1" d="M449,559.7c4.9-2.9,9.2-6.6,12.9-10.9c8.6-9.7,13.9-21.9,15-34.9c1-11.1-1.2-19.3-6.5-24.5
	c-6.7-6.6-15.9-5.6-16.3-5.6l-0.4,0l-6.2,5.3l1.8,2.1l5.6-4.7c1.7-0.1,8.6-0.1,13.7,4.9c4.7,4.6,6.6,12.1,5.7,22.3
	c-1,12.3-6,24-14.2,33.2c-3.5,4.1-7.7,7.6-12.3,10.4L449,559.7z"/>
<rect x="429.7" y="515" transform="matrix(0.2012 -0.9796 0.9796 0.2012 -177.3737 846.292)" class="st0" width="0.9" height="33.8"/>
<rect x="408.6" y="505.9" transform="matrix(4.078485e-02 -0.9992 0.9992 4.078485e-02 -88.7098 920.2462)" class="st0" width="52.7" height="0.9"/>
<path class="st0" d="M406.1,514.7c0.3,6.7,0.8,20,0.8,20.6c0,0.7,10,21.5,14.4,30.4l-8.1-46.9c-0.6-3.7-3.2-6.7-6.7-8
	C406.2,512.1,406,513.4,406.1,514.7z"/>
<path class="st6" d="M455.7,613c-2.7-3.5-2.1-8.5,1.4-11.2c0.4-0.3,0.8-0.5,1.2-0.8l-1.6-18.2l10.8-3.7l2,25.7
	c1.8,4.1,0,8.8-4.1,10.6C462,616.9,458,615.9,455.7,613L455.7,613z"/>
<path class="st4" d="M448.7,503.4c-0.4-5.7,3-10.9,8.4-12.7c2.3-0.8,4.8-0.8,7.1,0c5.1,1.7,8.5,6.5,8.4,11.8l0.8,92.2l-19.1,0.7
	L448.7,503.4z"/>
</svg>
