<?xml version="1.0" encoding="utf-8"?>
<!-- Generator: Adobe Illustrator 26.0.1, SVG Export Plug-In . SVG Version: 6.00 Build 0)  -->
<svg version="1.1" id="Calque_1" xmlns="http://www.w3.org/2000/svg" xmlns:xlink="http://www.w3.org/1999/xlink" x="0px" y="0px"
	 viewBox="0 0 799.1 450.3" style="enable-background:new 0 0 799.1 450.3;" xml:space="preserve">
<style type="text/css">
	.st0{fill:#F2F2F2;}
	.st1{fill:#CCCCCC;}
	.st2{fill:#FF6884;}
	.st3{fill:#3F3D56;}
	.st4{fill:#9AC39A;}
	.st5{fill:#B0E9B0;}
	.st6{fill:#E6E6E6;}
	.st7{fill:#A0616A;}
	.st8{fill:#FFB8B8;}
	.st9{fill:#FFFFFF;}
	.st10{fill:#A5D7E8;}
	.st11{fill:#2F2E41;}
	.st12{fill:#FF6584;}
	.st13{fill:#B3B3B3;}
</style>
<path class="st0" d="M-34.3,395.5c0-9.5,7.7-17.2,17.2-17.2c9.5,0,17.1,7.7,17.2,17.2"/>
<path class="st1" d="M-17.2,395.5c-0.3,0-0.5-0.2-0.5-0.5v-9c0-0.3,0.2-0.5,0.5-0.5s0.5,0.2,0.5,0.5c0,0,0,0,0,0v9
	C-16.7,395.3-16.9,395.5-17.2,395.5z"/>
<path class="st1" d="M-17.2,392.4c-0.1,0-0.2,0-0.3-0.1l-5.6-4.8c-0.2-0.2-0.2-0.5-0.1-0.7c0.2-0.2,0.5-0.2,0.7-0.1c0,0,0,0,0,0
	l5.6,4.8c0.2,0.2,0.2,0.5,0,0.7C-16.9,392.3-17,392.4-17.2,392.4L-17.2,392.4z"/>
<path class="st0" d="M18.6,395.5c0-9.5,7.7-17.2,17.2-17.1c9.5,0,17.1,7.7,17.1,17.1"/>
<path class="st1" d="M35.7,395.5c-0.3,0-0.5-0.2-0.5-0.5v-9c0-0.3,0.2-0.5,0.5-0.5c0.3,0,0.5,0.2,0.5,0.5v9
	C36.2,395.3,36,395.5,35.7,395.5z"/>
<path class="st1" d="M35.7,392.4c-0.1,0-0.2,0-0.3-0.1l-5.6-4.8c-0.2-0.2-0.2-0.5-0.1-0.7c0.2-0.2,0.5-0.2,0.7-0.1c0,0,0,0,0,0
	l5.6,4.8c0.2,0.2,0.2,0.5,0,0.7C36,392.3,35.9,392.4,35.7,392.4L35.7,392.4z"/>
<circle class="st2" cx="721.1" cy="34.3" r="33"/>
<ellipse class="st0" cx="45.1" cy="425.3" rx="30" ry="7"/>
<path class="st0" d="M29.8,138c7.9-24.6,27.1-43.6,49.9-55c27-13.4,58.1-15,87.4-9.7c31.7,5.6,61.3,18.7,90,32.9
	c28.1,13.9,55.8,28.7,85,40.2c58.4,23,120.3,35.8,182.9,37.9c56.4,1.9,116.8-4.3,165.1-36c44.3-29.1,72.4-77,87.1-127
	c1.9-6.4,3.5-12.9,5-19.4c0.4-1.9-2.5-2.7-2.9-0.8c-11.8,52.2-37.1,103.8-80.2,137c-46.6,36-107.9,44.3-165.1,43.3
	c-63.4-1.1-126.1-13.2-185.3-35.8c-30-11.4-58.3-26.2-87-40.6c-28-14-56.9-27.1-87.7-33.6c-28.1-5.9-58.3-6.3-85.4,4.2
	c-22.3,8.6-42.7,24-54.6,45.1c-2.9,5.2-5.3,10.6-7.1,16.3C26.3,139,29.2,139.8,29.8,138L29.8,138z"/>
<path class="st3" d="M458.1,367.7c0.6,0,1-0.4,1-1s-0.4-1-1-1h-9.5v-4h9.5c0.6,0,1-0.4,1-1s-0.4-1-1-1h-81c-0.6,0-1,0.4-1,1
	s0.4,1,1,1h9.5v4h-9.5c-0.6,0-1,0.4-1,1s0.4,1,1,1h9.5v4h-9.5c-0.6,0-1,0.4-1,1s0.4,1,1,1h9.5v4h-8.5c-1.1,0-2,0.9-2,2s0.9,2,2,2
	h8.1c-0.1,0.2-0.1,0.3-0.1,0.5v14c0,0.8,0.7,1.5,1.5,1.5s1.5-0.7,1.5-1.5v-14c0-0.2,0-0.3-0.1-0.5h57.2c-0.1,0.2-0.1,0.3-0.1,0.5v14
	c0,0.8,0.7,1.5,1.5,1.5s1.5-0.7,1.5-1.5v-14c0-0.2,0-0.3-0.1-0.5h8.1c1.1,0,2-0.9,2-2s-0.9-2-2-2h-8.5v-4h9.5c0.6,0,1-0.4,1-1
	s-0.4-1-1-1h-9.5v-4H458.1z M388.6,361.7h58v4h-58V361.7z M446.6,377.7h-58v-4h58V377.7z M446.6,371.7h-58v-4h58V371.7z"/>
<path class="st4" d="M153.1,325.7c0-17.7-14.3-59.6-32-59.6s-32,41.9-32,59.6c0,17.7,14.3,32,32,32S153.1,343.4,153.1,325.7
	L153.1,325.7z"/>
<path class="st5" d="M145.1,325.7c0-17.7-14.3-59.6-32-59.6s-32,41.9-32,59.6c0,17.7,14.3,32,32,32S145.1,343.4,145.1,325.7
	L145.1,325.7z"/>
<path class="st1" d="M114.1,397.3c-0.6,0-1-0.4-1-1v-89.1c0-0.6,0.4-1,1-1s1,0.4,1,1v89.1C115.1,396.8,114.7,397.3,114.1,397.3z"/>
<path class="st1" d="M114.1,321.7c-0.6,0-1-0.4-1-1c0-0.3,0.1-0.5,0.3-0.7l13.1-13.1c0.4-0.4,1-0.4,1.4,0s0.4,1,0,1.4l-13.1,13.1
	C114.7,321.6,114.4,321.7,114.1,321.7z"/>
<path class="st3" d="M482.1,397.3c-0.6,0-1-0.4-1-1v-89.1c0-0.6,0.4-1,1-1s1,0.4,1,1v89.1C483.1,396.8,482.7,397.3,482.1,397.3z"/>
<path class="st4" d="M589.1,325.7c0-17.7-14.3-59.6-32-59.6s-32,41.9-32,59.6c0,17.7,14.3,32,32,32
	C574.8,357.7,589.1,343.4,589.1,325.7L589.1,325.7z"/>
<path class="st5" d="M581.1,325.7c0-17.7-14.3-59.6-32-59.6s-32,41.9-32,59.6c0,17.7,14.3,32,32,32
	C566.8,357.7,581.1,343.4,581.1,325.7L581.1,325.7z"/>
<path class="st1" d="M550.1,397.3c-0.6,0-1-0.4-1-1v-89.1c0-0.6,0.4-1,1-1s1,0.4,1,1v89.1C551.1,396.8,550.7,397.3,550.1,397.3z"/>
<path class="st1" d="M550.1,321.7c-0.6,0-1-0.4-1-1c0-0.3,0.1-0.5,0.3-0.7l13.1-13.1c0.4-0.4,1-0.4,1.4,0s0.4,1,0,1.4l-13.1,13.1
	C550.7,321.6,550.4,321.7,550.1,321.7z"/>
<path class="st6" d="M220.1,51.8h-16c-2.5,0-4.5-2-4.5-4.5v-37c0-2.5,2-4.5,4.5-4.5h16c2.5,0,4.5,2,4.5,4.5v37
	C224.6,49.8,222.6,51.8,220.1,51.8z"/>
<path class="st7" d="M283.1,396.8h-82c-4.7,0-8.5-3.8-8.5-8.5v-331c0-4.7,3.8-8.5,8.5-8.5h82c4.7,0,8.5,3.8,8.5,8.5v331
	C291.6,393,287.8,396.8,283.1,396.8z"/>
<path class="st8" d="M234.1,396.8h-82c-4.7,0-8.5-3.8-8.5-8.5v-331c0-4.7,3.8-8.5,8.5-8.5h82c4.7,0,8.5,3.8,8.5,8.5v331
	C242.6,393,238.8,396.8,234.1,396.8z"/>
<path class="st0" d="M205.1,51.8h-16c-2.5,0-4.5-2-4.5-4.5v-37c0-2.5,2-4.5,4.5-4.5h16c2.5,0,4.5,2,4.5,4.5v37
	C209.6,49.8,207.6,51.8,205.1,51.8z"/>
<path class="st9" d="M184.1,123.8h-19c-1.4,0-2.5-1.1-2.5-2.5v-29c0-1.4,1.1-2.5,2.5-2.5h19c1.4,0,2.5,1.1,2.5,2.5v29
	C186.6,122.7,185.5,123.8,184.1,123.8z"/>
<path class="st9" d="M221.1,123.8h-19c-1.4,0-2.5-1.1-2.5-2.5v-29c0-1.4,1.1-2.5,2.5-2.5h19c1.4,0,2.5,1.1,2.5,2.5v29
	C223.6,122.7,222.5,123.8,221.1,123.8z"/>
<path class="st9" d="M184.1,176.8h-19c-1.4,0-2.5-1.1-2.5-2.5v-29c0-1.4,1.1-2.5,2.5-2.5h19c1.4,0,2.5,1.1,2.5,2.5v29
	C186.6,175.7,185.5,176.8,184.1,176.8z"/>
<path class="st9" d="M221.1,176.8h-19c-1.4,0-2.5-1.1-2.5-2.5v-29c0-1.4,1.1-2.5,2.5-2.5h19c1.4,0,2.5,1.1,2.5,2.5v29
	C223.6,175.7,222.5,176.8,221.1,176.8z"/>
<path class="st9" d="M184.1,229.8h-19c-1.4,0-2.5-1.1-2.5-2.5v-29c0-1.4,1.1-2.5,2.5-2.5h19c1.4,0,2.5,1.1,2.5,2.5v29
	C186.6,228.7,185.5,229.8,184.1,229.8z"/>
<path class="st9" d="M221.1,229.8h-19c-1.4,0-2.5-1.1-2.5-2.5v-29c0-1.4,1.1-2.5,2.5-2.5h19c1.4,0,2.5,1.1,2.5,2.5v29
	C223.6,228.7,222.5,229.8,221.1,229.8z"/>
<path class="st9" d="M184.1,282.8h-19c-1.4,0-2.5-1.1-2.5-2.5v-29c0-1.4,1.1-2.5,2.5-2.5h19c1.4,0,2.5,1.1,2.5,2.5v29
	C186.6,281.7,185.5,282.8,184.1,282.8z"/>
<path class="st9" d="M221.1,282.8h-19c-1.4,0-2.5-1.1-2.5-2.5v-29c0-1.4,1.1-2.5,2.5-2.5h19c1.4,0,2.5,1.1,2.5,2.5v29
	C223.6,281.7,222.5,282.8,221.1,282.8z"/>
<path class="st9" d="M184.1,335.8h-19c-1.4,0-2.5-1.1-2.5-2.5v-29c0-1.4,1.1-2.5,2.5-2.5h19c1.4,0,2.5,1.1,2.5,2.5v29
	C186.6,334.7,185.5,335.8,184.1,335.8z"/>
<path class="st9" d="M221.1,335.8h-19c-1.4,0-2.5-1.1-2.5-2.5v-29c0-1.4,1.1-2.5,2.5-2.5h19c1.4,0,2.5,1.1,2.5,2.5v29
	C223.6,334.7,222.5,335.8,221.1,335.8z"/>
<path class="st6" d="M633.1,226.8h-16c-2.5,0-4.5-2-4.5-4.5v-21c0-2.5,2-4.5,4.5-4.5h16c2.5,0,4.5,2,4.5,4.5v21
	C637.6,224.8,635.6,226.8,633.1,226.8z"/>
<path class="st7" d="M768.1,397.8h-82c-4.7,0-8.5-3.8-8.5-8.5v-159c0-4.7,3.8-8.5,8.5-8.5h82c4.7,0,8.5,3.8,8.5,8.5v159
	C776.6,394,772.8,397.8,768.1,397.8z"/>
<path class="st8" d="M719.1,397.8h-142c-4.7,0-8.5-3.8-8.5-8.5v-159c0-4.7,3.8-8.5,8.5-8.5h142c4.7,0,8.5,3.8,8.5,8.5v159
	C727.6,394,723.8,397.8,719.1,397.8z"/>
<path class="st0" d="M618.1,226.8h-16c-2.5,0-4.5-2-4.5-4.5v-21c0-2.5,2-4.5,4.5-4.5h16c2.5,0,4.5,2,4.5,4.5v21
	C622.6,224.8,620.6,226.8,618.1,226.8z"/>
<path class="st9" d="M639.1,300.3h-19c-1.4,0-2.5-1.1-2.5-2.5v-29c0-1.4,1.1-2.5,2.5-2.5h19c1.4,0,2.5,1.1,2.5,2.5v29
	C641.6,299.2,640.5,300.3,639.1,300.3z"/>
<path class="st9" d="M676.1,300.3h-19c-1.4,0-2.5-1.1-2.5-2.5v-29c0-1.4,1.1-2.5,2.5-2.5h19c1.4,0,2.5,1.1,2.5,2.5v29
	C678.6,299.2,677.5,300.3,676.1,300.3z"/>
<path class="st9" d="M639.1,353.3h-19c-1.4,0-2.5-1.1-2.5-2.5v-29c0-1.4,1.1-2.5,2.5-2.5h19c1.4,0,2.5,1.1,2.5,2.5v29
	C641.6,352.2,640.5,353.3,639.1,353.3z"/>
<path class="st9" d="M676.1,353.3h-19c-1.4,0-2.5-1.1-2.5-2.5v-29c0-1.4,1.1-2.5,2.5-2.5h19c1.4,0,2.5,1.1,2.5,2.5v29
	C678.6,352.2,677.5,353.3,676.1,353.3z"/>
<path class="st6" d="M983.1,398.3H-62.7c-0.6,0-1-0.4-1-1s0.4-1,1-1H983.1c0.6,0,1,0.4,1,1S983.7,398.3,983.1,398.3z"/>
<path class="st6" d="M299.1,433.3h-93c-0.6,0-1-0.4-1-1s0.4-1,1-1h93c0.6,0,1,0.4,1,1S299.7,433.3,299.1,433.3z"/>
<path class="st6" d="M530.1,433.3h-93c-0.6,0-1-0.4-1-1s0.4-1,1-1h93c0.6,0,1,0.4,1,1S530.7,433.3,530.1,433.3z"/>
<path class="st6" d="M761.1,433.3h-93c-0.6,0-1-0.4-1-1s0.4-1,1-1h93c0.6,0,1,0.4,1,1S761.7,433.3,761.1,433.3z"/>
<path class="st4" d="M352.1,325.7c0-17.7-14.3-59.6-32-59.6s-32,41.9-32,59.6c0,17.7,14.3,32,32,32S352.1,343.4,352.1,325.7
	L352.1,325.7z"/>
<path class="st5" d="M344.1,325.7c0-17.7-14.3-59.6-32-59.6s-32,41.9-32,59.6c0,17.7,14.3,32,32,32S344.1,343.4,344.1,325.7
	L344.1,325.7z"/>
<path class="st1" d="M313.1,397.3c-0.6,0-1-0.4-1-1v-89.1c0-0.6,0.4-1,1-1s1,0.4,1,1v89.1C314.1,396.8,313.7,397.3,313.1,397.3z"/>
<path class="st1" d="M313.1,321.7c-0.6,0-1-0.4-1-1c0-0.3,0.1-0.5,0.3-0.7l13.1-13.1c0.4-0.4,1-0.4,1.4,0s0.4,1,0,1.4l-13.1,13.1
	C313.7,321.6,313.4,321.7,313.1,321.7z"/>
<path class="st4" d="M863.1,325.7c0-17.7-14.3-59.6-32-59.6s-32,41.9-32,59.6c0,17.7,14.3,32,32,32
	C848.8,357.7,863.1,343.4,863.1,325.7L863.1,325.7z"/>
<path class="st5" d="M855.1,325.7c0-17.7-14.3-59.6-32-59.6s-32,41.9-32,59.6c0,17.7,14.3,32,32,32
	C840.8,357.7,855.1,343.4,855.1,325.7L855.1,325.7z"/>
<path class="st1" d="M824.1,397.3c-0.6,0-1-0.4-1-1v-89.1c0-0.6,0.4-1,1-1s1,0.4,1,1v89.1C825.1,396.8,824.7,397.3,824.1,397.3z"/>
<path class="st1" d="M824.1,321.7c-0.6,0-1-0.4-1-1c0-0.3,0.1-0.5,0.3-0.7l13.1-13.1c0.4-0.4,1-0.4,1.4,0s0.4,1,0,1.4l-13.1,13.1
	C824.7,321.6,824.4,321.7,824.1,321.7z"/>
<path class="st3" d="M493.1,336.8h-22c-1.4,0-2.5-1.1-2.5-2.5v-22c0-1.4,1.1-2.5,2.5-2.5h22c1.4,0,2.5,1.1,2.5,2.5v22
	C495.6,335.7,494.5,336.8,493.1,336.8z"/>
<path class="st8" d="M706.7,347.5c0.9,0.2,1.5,1.2,1.2,2.1c0,0.1-0.1,0.2-0.1,0.3l4.3,4.2l-3.1,0.7l-3.7-4.1
	c-0.8-0.5-1.1-1.5-0.7-2.3C705.1,347.7,705.9,347.3,706.7,347.5L706.7,347.5z"/>
<path class="st10" d="M712.8,358.6l-5.4-5c-0.3-0.3-0.3-0.8,0-1.1c0,0,0,0,0,0l1.1-1.1c0.3-0.3,0.7-0.3,1-0.1l4.5,3.4l2.8-6.8
	c0.4-1.1,1.7-1.6,2.8-1.2c0,0,0.1,0,0.1,0.1l0,0c0.8,0.4,1.3,1.3,1.2,2.2c-0.5,3.1-3.6,7.2-5.4,9.3c-0.5,0.6-1.3,0.8-2.1,0.6
	C713.2,358.9,713,358.7,712.8,358.6z"/>
<path class="st9" d="M709.8,353.7l-3.9-5.7c-0.1-0.2-0.1-0.4,0.1-0.5l0.2-0.1c0.2-0.1,0.4-0.1,0.5,0.1l3.9,5.7
	c0.1,0.2,0.1,0.4-0.1,0.5c0,0,0,0,0,0l-0.2,0.1C710.1,353.9,709.9,353.8,709.8,353.7L709.8,353.7z"/>
<path class="st3" d="M708.7,353.7l-3.3-4.8c-0.3-0.4-0.2-1,0.2-1.3l0.3-0.2l4.3,6.3L710,354l0,0C709.6,354.2,709,354.1,708.7,353.7z
	"/>
<polygon class="st8" points="709.1,394.7 707,394.5 707.3,386.5 710,386.8 "/>
<path class="st11" d="M709.4,396.8l-6.6-0.8l0-0.1c0.2-1.4,1.5-2.5,2.9-2.3c0,0,0,0,0,0h0l4.1,0.5L709.4,396.8z"/>
<polygon class="st8" points="733,393.2 731.1,393.8 727.8,386.5 730.7,385.6 "/>
<path class="st11" d="M734.1,395l-6.4,2l0-0.1c-0.4-1.4,0.3-2.8,1.7-3.3c0,0,0,0,0,0h0l3.9-1.2L734.1,395z"/>
<path class="st11" d="M706.8,392.9c-0.4-0.1-0.7-0.6-0.6-1l1.2-14.3c0.1-0.7,0.3-1.3,0.6-1.8l7.5-12.5l6.7,1.2l0,0
	c3.3,2,6.2,11.7,9,21.1c0.4,1.5,0.9,3,1.3,4.4c0.2,0.4,0,0.9-0.5,1.1l-2,0.9c-0.4,0.2-0.9,0-1.1-0.4l-10.5-19.2c0,0-0.1-0.1-0.1-0.1
	c-0.1,0-0.1,0-0.1,0.1l-6.1,6.9l-2.2,13.1l0,0c-0.2,0.4-0.6,0.6-1,0.5L706.8,392.9L706.8,392.9L706.8,392.9z"/>
<path class="st10" d="M715.2,364.6L715.2,364.6L715.2,364.6c-0.1-0.2-3.2-10.6-0.4-17.2l0,0c0.1-0.2,2-3.9,4.3-4.2l0.1,0l0.7,1.4
	c0.2,0.2,4.2,4.3,2.4,11.4c0.2,0.6,2.3,8.5,1.2,9.7c-0.4,0.3-1,0.4-1.5,0.4C719.7,365.8,717.4,365.4,715.2,364.6z"/>
<circle class="st11" cx="718.6" cy="336.7" r="5.2"/>
<circle class="st8" cx="716.6" cy="337.7" r="4.2"/>
<path class="st11" d="M719.2,341.8c-0.4,0.1-0.8,0.3-1.1,0c-0.3-0.3-0.3-0.8-0.1-1.1c0.2-0.3,0.4-0.7,0.5-1.1
	c0.1-0.6-0.2-1.2-0.6-1.5c-0.4-0.3-1-0.6-1.5-0.8l-2.9-1c-0.8-0.2-1.4-0.6-1.9-1.2c-0.5-1.1-0.1-2.3,0.9-2.9c1-0.5,2.2-0.5,3.2-0.1
	c0.6,0.3,1.1,0.5,1.7,0.7c1.2,0.3,2.5,0,3.5,0.7c0.9,0.7,1.4,1.7,1.3,2.8c-0.1,1.1-0.4,2.1-0.9,3.1c-0.2,0.6-0.5,1.2-0.9,1.7
	c-0.4,0.5-1,0.8-1.7,0.7L719.2,341.8z"/>
<circle class="st11" cx="723" cy="334.1" r="3.4"/>
<path class="st9" d="M717.5,339c0-0.2,0.2-0.3,0.3-0.3s0.3,0.2,0.3,0.3c0,0.1-0.1,0.3-0.2,0.3v0.7c0,0.1-0.1,0.1-0.1,0.1
	s-0.1-0.1-0.1-0.1c0,0,0,0,0,0v-0.7C717.5,339.3,717.5,339.2,717.5,339z"/>
<path class="st8" d="M706.9,351.1c0.9-0.1,1.8,0.6,1.9,1.5c0,0.1,0,0.2,0,0.3l5.5,2.4l-2.6,1.7l-4.9-2.6c-0.9-0.1-1.6-1-1.4-1.9
	C705.5,351.7,706.1,351.1,706.9,351.1z"/>
<path class="st10" d="M716.5,359.3l-6.8-2.8c-0.4-0.2-0.6-0.6-0.4-1c0,0,0,0,0,0l0.6-1.4c0.2-0.3,0.5-0.5,0.9-0.4l5.4,1.7l0.3-7.4
	c0-1.2,1-2.1,2.2-2c0,0,0.1,0,0.1,0l0,0c0.9,0.1,1.7,0.8,1.9,1.7c0.6,3.1-0.9,8-1.8,10.6c-0.3,0.7-1,1.2-1.7,1.2
	C717,359.4,716.7,359.4,716.5,359.3z"/>
<path class="st10" d="M21.1,357.5H10.8v-3.2c3.3-2.3,6.2-2.1,10,0.2L21.1,357.5z"/>
<polygon class="st8" points="8.4,413.5 6.1,413.5 5.7,404.8 8.4,404.8 "/>
<path class="st11" d="M8.9,415.7l-7.3,0v-0.1c0-1.6,1.3-2.9,2.9-2.9c0,0,0,0,0,0h0l4.5,0L8.9,415.7z"/>
<polygon class="st8" points="21.2,413.5 23.4,413.5 23.8,404.8 21.2,404.8 "/>
<path class="st11" d="M20.6,412.8l4.5,0h0c1.6,0,2.9,1.3,2.9,2.9c0,0,0,0,0,0v0.1l-7.3,0L20.6,412.8z"/>
<path class="st11" d="M21.2,412.4c-0.4,0-0.7-0.3-0.8-0.7l-5.6-24.6c0-0.1-0.1-0.2-0.3-0.2h0c-0.1,0-0.2,0.1-0.3,0.2L9,411.6
	c-0.1,0.4-0.4,0.7-0.8,0.7H5.8c-0.5,0-0.8-0.4-0.8-0.8c0,0,0,0,0,0l1.8-30.9l0.7-0.2l0,0l14.5,0.1l3.1,30.9c0,0.5-0.3,0.9-0.7,0.9
	c0,0,0,0,0,0L21.2,412.4C21.3,412.4,21.2,412.4,21.2,412.4z"/>
<circle class="st8" cx="15.2" cy="347.3" r="4.6"/>
<path class="st3" d="M12.4,383.8c-0.8,0-1.6-0.1-2.4-0.3c-1.4-0.4-2.5-1.4-3.2-2.7c-0.1-0.2-0.1-0.4-0.1-0.6
	c0.5-1.7,2.9-10.6,1.4-17.7c-0.4-2-0.1-4.1,1.1-5.8c1.1-1.7,2.8-2.9,4.8-3.2v0c0.3-0.1,0.5-0.1,0.8-0.1c2.2-0.3,4.4,0.5,6,2
	c1.6,1.5,2.5,3.7,2.4,6L22,380.4c0,0.3-0.2,0.6-0.4,0.7C20.2,381.8,16.1,383.8,12.4,383.8z"/>
<path class="st11" d="M20.4,344c-1-2.5-3.5-3.9-6.1-3.4l1.4,1.2c-1.8,0.1-3.7-0.1-4.9,1.2c0.4,0,0.9,0.9,1.3,0.8
	c-0.8,0.1-1.5,0.5-1.8,1.2c-0.3,0.7-0.4,1.5-0.2,2.2c0.5,1.1,1,2.2,1.6,3.2c-0.1-1.8,3.5-6.1,5.3-5.7c-0.9,0.3-1.7,0.9-2.2,1.7
	c1.2-0.6,2.5-0.8,3.8-0.6c0.3,0.1,0.6,0.1,0.9,0.1c0.6-0.1,1-0.7,0.9-1.3c0-0.2-0.1-0.3-0.2-0.5L20.4,344z"/>
<path class="st10" d="M12.1,382.7c-0.1,0-0.2,0-0.3-0.1l-8.6-3.8c-0.4-0.2-0.6-0.6-0.5-1l5.7-21.6c0.4-1.7,2.2-2.7,3.8-2.2
	c0,0,0,0,0.1,0l2.3,0.7L13,381.9c0,0.3-0.2,0.5-0.4,0.7C12.4,382.6,12.3,382.7,12.1,382.7z"/>
<path class="st10" d="M28.1,377.9l-0.4-1.4l-0.6-2.1l-0.3-1l-0.6-2.1l-4-15c-0.4-1.7-2.1-2.7-3.8-2.2c0,0,0,0-0.1,0l-2.3,0.7
	l1.1,19.1l0.1,2l0.1,1.3v0l0.1,2l0.2,2.8c0,0.4,0.4,0.8,0.8,0.8c0.1,0,0.2,0,0.3-0.1l8.6-3.8C28,378.7,28.2,378.3,28.1,377.9z"/>
<polygon class="st1" points="26.9,373.3 17.5,375.8 17.4,373.8 26.4,371.3 "/>
<polygon class="st1" points="27.7,376.4 17.7,379.1 17.5,377.1 17.5,377.1 27.2,374.3 "/>
<polygon class="st1" points="13.3,374.3 13.2,376.2 3.9,373.5 4.5,371.4 "/>
<polygon class="st1" points="13.1,377.5 3.7,374.5 3.1,376.5 13,379.5 "/>
<path class="st8" d="M3.8,379.6c1.1-0.3,1.7-1.4,1.4-2.4c0-0.1-0.1-0.2-0.1-0.3l4.4-14l-3.2-0.7l-4.1,13.7c-1,0.5-1.3,1.7-0.8,2.7
	C2,379.4,2.9,379.8,3.8,379.6z"/>
<path class="st3" d="M9.7,356L9.7,356c0.9,0.1,1.4,1.1,1.2,2.4l-1.1,6.1c-0.1,0.5-0.5,0.8-0.8,0.7l-3.7-0.9
	c-0.3-0.1-0.4-0.5-0.2-0.9l2.2-5.5C7.7,356.8,8.6,356.1,9.7,356z"/>
<path class="st10" d="M15.2,338.8L15.2,338.8c3.2,0,5.8,2.5,5.9,5.7h1.1c0.2,0,0.4,0.2,0.4,0.4v1.5c0,0.2-0.2,0.4-0.4,0.4H9.6
	c-0.2,0-0.4-0.2-0.4-0.4v-1.7C9.3,341.5,11.9,338.8,15.2,338.8C15.2,338.8,15.2,338.8,15.2,338.8z"/>
<path class="st6" d="M15.9,375.5h-2.6c-0.2,0-0.3-0.1-0.3-0.3l-0.5-5.4h4.3l-0.5,5.4C16.2,375.4,16.1,375.5,15.9,375.5z"/>
<path class="st1" d="M16.8,370.5h-4.3c-0.2,0-0.3-0.2-0.3-0.3v-0.8c0-0.2,0.2-0.3,0.3-0.3h4.3c0.2,0,0.3,0.2,0.3,0.3v0.8
	C17.1,370.3,17,370.5,16.8,370.5z"/>
<path class="st8" d="M14.7,372.6c0.1,0,0.2,0,0.3,0.1l7-6l-0.4-2.2l3.2-1l1.1,3.8c0.2,0.6-0.1,1.3-0.6,1.7l-8.8,5.6
	c0,1.1-0.8,2-1.9,2c-1.1,0-2-0.8-2-1.9s0.8-2,1.9-2C14.5,372.6,14.6,372.6,14.7,372.6L14.7,372.6z"/>
<path class="st3" d="M22,356.5L22,356.5c1-0.3,1.9,0.5,2.3,1.7l1.6,6c0.1,0.5-0.1,0.9-0.5,1l-4.1,0.6c-0.3,0-0.6-0.3-0.6-0.7
	l-0.2-5.9C20.3,358,20.9,356.9,22,356.5z"/>
<path class="st6" d="M69,372.8h-3.1c-0.2,0-0.4-0.2-0.4-0.4l-0.6-6.5H70l-0.6,6.5C69.4,372.6,69.2,372.8,69,372.8z"/>
<path class="st1" d="M70,366.7h-5.2c-0.2,0-0.4-0.2-0.4-0.4v-1c0-0.2,0.2-0.4,0.4-0.4H70c0.2,0,0.4,0.2,0.4,0.4v1
	C70.4,366.6,70.2,366.7,70,366.7z"/>
<path class="st1" d="M99.9,410.7c-2.3-3-4.1-6.4-5.4-10c-0.2-0.4,0-0.9,0.5-1.2l7.8-4.2c0.3-0.1,0.6-0.2,0.8,0
	c0.3,0.1,0.5,0.4,0.5,0.6c0.9,3.5,2.6,6.7,5,9.3c0.2,0.2,0.3,0.5,0.2,0.8c-0.1,0.3-0.2,0.5-0.5,0.7l-7.8,4.2
	C100.7,411.2,100.2,411.1,99.9,410.7z"/>
<path class="st9" d="M100.5,410.3c0.1,0.1,0.2,0.1,0.4,0.1l7.8-4.2c0.1,0,0.1-0.1,0.1-0.2c0-0.1,0-0.2-0.1-0.3
	c-2.4-2.8-4.2-6-5.1-9.6c0-0.1-0.1-0.2-0.2-0.2c-0.1,0-0.2,0-0.2,0l-7.8,4.2c-0.1,0.1-0.2,0.2-0.1,0.3
	C96.4,404,98.2,407.3,100.5,410.3L100.5,410.3z"/>
<path class="st1" d="M103.4,401.3l-4.3,1.9c-0.3,0.1-0.7,0-0.9-0.3l-0.1-0.2c-0.1-0.3,0-0.7,0.3-0.9l4.3-1.9c0.3-0.1,0.7,0,0.9,0.3
	l0.1,0.2C103.9,400.8,103.7,401.2,103.4,401.3z"/>
<path class="st1" d="M104.9,404.2l-4.3,1.9c-0.3,0.1-0.7,0-0.9-0.3l-0.1-0.2c-0.1-0.3,0-0.7,0.3-0.9l4.3-1.9c0.3-0.1,0.7,0,0.9,0.3
	l0.1,0.2C105.4,403.7,105.3,404.1,104.9,404.2z"/>
<path class="st7" d="M94.9,401.8c-1.1-0.7-1.4-2.2-0.7-3.3c0.1-0.1,0.2-0.2,0.3-0.3l-1.8-25.5l5.2,0.5l0.1,25c0.9,1,0.9,2.5-0.1,3.4
	C97.1,402.3,95.9,402.4,94.9,401.8z"/>
<path class="st3" d="M93.8,381.2c-0.2-0.2-0.4-0.5-0.4-0.8l-0.4-6.9c-0.1-1.5,1.1-2.8,2.6-2.9c1.3-0.1,2.5,0.8,2.8,2l1.7,6.2
	c0.1,0.5-0.2,1.1-0.7,1.2l-4.7,1.3C94.4,381.5,94.1,381.4,93.8,381.2z"/>
<polygon class="st7" points="85,433.2 82.3,433.2 81,422.7 85,422.7 "/>
<path class="st11" d="M79.7,432.4h5.9l0,0v3.3l0,0H77l0,0v-0.6C77,433.6,78.2,432.4,79.7,432.4C79.7,432.4,79.7,432.4,79.7,432.4z"
	/>
<polygon class="st7" points="95.3,433.2 92.5,433.2 91.2,422.7 95.3,422.7 "/>
<path class="st11" d="M90,432.4h5.9l0,0v3.3l0,0h-8.6l0,0v-0.6C87.3,433.6,88.5,432.4,90,432.4C90,432.4,90,432.4,90,432.4z"/>
<path class="st11" d="M84.9,427.9l-3-0.1c-0.5,0-1-0.5-1-1c-0.8-12.2-1.9-25.4-0.2-30.4c0-0.6,0.4-1,1-1c0.1,0,0.1,0,0.2,0l12,1.7
	c0.5,0.1,0.9,0.5,0.9,1c1.5,6,1.6,16.9,1.5,28.2c0,0.6-0.4,1-1,1c0,0,0,0,0,0H92c-0.5,0-0.9-0.4-1-0.8l-2-12.7
	c-0.1-0.4-0.5-0.7-0.9-0.6c-0.3,0.1-0.6,0.3-0.7,0.7L85.9,427C85.9,427.5,85.4,427.9,84.9,427.9C84.9,427.9,84.9,427.9,84.9,427.9z"
	/>
<path class="st3" d="M87,398.1c-1.8-1-3.7-1.7-5.7-2c-0.3,0-0.5-0.2-0.7-0.4c-0.2-0.2-0.2-0.5-0.2-0.8l2.9-21.4
	c0.3-2.5,2-4.7,4.3-5.8c2.3-1,4.9-0.8,7,0.5c0.1,0.1,0.2,0.1,0.3,0.2c2.4,1.8,3.5,4.8,2.8,7.7c-1.8,7.2-2.4,19.1-2.5,21.4
	c0,0.4-0.3,0.8-0.7,0.9c-1.1,0.4-2.2,0.6-3.4,0.6C89.7,399.1,88.3,398.8,87,398.1z"/>
<circle class="st7" cx="89.4" cy="359.4" r="5.5"/>
<path class="st11" d="M93.3,363.7c-0.7,0.7-1.8,0.8-2.5,0.1c-0.3-0.3-0.5-0.7-0.6-1.1c0-0.1,0-0.2,0-0.3c0.2-0.6,0.3-1.3,0.4-2
	c0-0.2-0.1-0.3-0.2-0.5c-0.8-1.1-2.7,0.5-3.5-0.5c-0.5-0.6,0.1-1.6-0.3-2.2c-0.5-0.9-1.9-0.5-2.8-0.9c-1-0.5-0.9-2.1-0.3-3
	c0.9-1.1,2.2-1.8,3.5-1.8c1.4,0,2.7,0.2,4,0.8c1.5,0.5,2.8,1.4,3.8,2.6c1,1.6,1.3,3.6,0.6,5.5C95,361.6,94.3,362.8,93.3,363.7z"/>
<path class="st10" d="M97.6,369.1c-0.1-0.5-0.9-1.1-2.1-1.6c-3.8-1.6-8.2-1.2-11.7,1c-0.2,0-0.5,0.2-0.5,0.4l-4,17.5l-0.5,2.3
	l-0.3,1.5l-0.5,2.3l-0.3,1.2c-0.1,0.3,0.1,0.6,0.4,0.7c0,0,0,0,0.1,0l17.1,1.5c0,0,0,0,0,0c0.3,0,0.5-0.2,0.6-0.5l0.2-2.5l0.2-2.6
	l0.1-1.1l0.2-2.6L97.6,369.1L97.6,369.1L97.6,369.1z"/>
<path class="st7" d="M69.6,370.2c0,0.1,0,0.2,0.1,0.4l9.6,5.5l2.3-1.3l2.5,3.2l-5,3.5l-10.9-8.6c-1.2,0.4-2.6-0.2-3-1.4
	s0.2-2.6,1.4-3c1.2-0.4,2.6,0.2,3,1.4C69.5,370,69.6,370.1,69.6,370.2z"/>
<path class="st3" d="M79.5,375.6c0-0.3,0.1-0.6,0.3-0.8l4.9-4.9c1.1-1.1,2.8-1.1,3.9,0c0.9,0.9,1.1,2.4,0.4,3.5l-3.5,5.3
	c-0.3,0.5-0.9,0.6-1.4,0.3l-4.1-2.7C79.7,376.1,79.6,375.9,79.5,375.6z"/>
<polygon class="st1" points="96.5,386.4 96.3,389.1 78.8,388.7 79.4,386.4 "/>
<polygon class="st1" points="96.2,390.2 96.1,392.9 78,392.5 78.5,390.2 "/>
<path class="st10" d="M89.5,348.8L89.5,348.8c-3.9,0-7,3.1-7.1,6.9H81c-0.2,0-0.4,0.2-0.4,0.4v1.8c0,0.2,0.2,0.4,0.4,0.4h15.2
	c0.2,0,0.4-0.2,0.4-0.4l0,0v-2C96.6,352,93.5,348.8,89.5,348.8C89.5,348.8,89.5,348.8,89.5,348.8z"/>
<path class="st12" d="M129.6,421.3h-1.5c0-0.2-2.1-5-2.1-5l-1.2-3l-0.8-2l-1.2-3l-1.4-3.5c-0.1-0.4-0.5-0.6-0.9-0.5
	c-0.3,0.1-0.5,0.3-0.5,0.5l-1.4,3.5l-1.2,3l-0.8,2l-1.2,3c0,0-2.1,4.8-2.1,5h-1.5c-0.8,0-1.5,0.7-1.5,1.5s0.7,1.5,1.5,1.5l0,0h18
	c0.8,0,1.5-0.7,1.5-1.5S130.5,421.3,129.6,421.3z"/>
<path class="st12" d="M128.6,447.3h-0.6c0.1-0.1-2.6-6.9-2.6-6.9l-1.6-3.8l-1.1-2.6l-1.6-3.8l-1.7-4.2c-0.1-0.5-0.6-0.8-1.1-0.7
	c-0.3,0.1-0.6,0.3-0.7,0.7l-1.7,4.2l-1.6,3.8l-1.1,2.6l-1.6,3.8c0,0-2.6,6.7-2.6,6.9h-0.6c-0.8,0-1.5,0.7-1.5,1.5s0.7,1.5,1.5,1.5
	h20c0.8,0,1.5-0.7,1.5-1.5S129.5,447.3,128.6,447.3z"/>
<polygon class="st0" points="124,411.3 117.3,411.3 118.5,408.3 122.8,408.3 "/>
<polygon class="st0" points="126.1,416.3 115.2,416.3 116.5,413.3 124.8,413.3 "/>
<polygon class="st0" points="122.8,434 114.5,434 116.1,430.2 121.3,430.2 "/>
<polygon class="st0" points="125.5,440.4 111.8,440.4 113.4,436.6 123.9,436.6 "/>
<path class="st8" d="M349.3,364.1c0.6-0.6,0.6-1.5,0-2.1c-0.1-0.1-0.1-0.1-0.2-0.2l-0.8-4.9l-3.1,1l1.7,4.4
	c-0.4,0.7-0.2,1.6,0.5,2.1C348.1,364.6,348.8,364.5,349.3,364.1L349.3,364.1z"/>
<path class="st10" d="M346.2,361.7l-1.9-8.9c-0.4-1.7,0.2-3.5,1.5-4.8c2.4-2.3,5.6-5.3,6.6-6.1c1-0.7,2.2-1.1,3.5-1l0,0l1.6,1.5
	l-3.6,5.9l-5.4,3.4l0.6,8.7L346.2,361.7z"/>
<path class="st1" d="M344.8,349.7h8c0.3,0,0.6,0.3,0.6,0.6l0,0c0,0.3-0.3,0.6-0.6,0.6h-8c-0.3,0-0.6-0.3-0.6-0.6l0,0
	C344.2,349.9,344.5,349.7,344.8,349.7z"/>
<path class="st1" d="M344.8,363.3h8c0.3,0,0.6,0.3,0.6,0.6l0,0c0,0.3-0.3,0.6-0.6,0.6h-8c-0.3,0-0.6-0.3-0.6-0.6l0,0
	C344.2,363.6,344.5,363.3,344.8,363.3z"/>
<path class="st1" d="M348.9,397.4c-0.2,0-0.3-0.1-0.3-0.3l-4-46.8c0-0.2,0.1-0.3,0.3-0.3c0.2,0,0.3,0.1,0.3,0.3l3.7,43.2l3.6-43.2
	c0-0.2,0.2-0.3,0.3-0.3c0.2,0,0.3,0.2,0.3,0.3l-3.9,46.8C349.2,397.2,349.1,397.4,348.9,397.4L348.9,397.4z"/>
<circle class="st8" cx="357.9" cy="335" r="4.1"/>
<polygon class="st8" points="345.6,395.5 343.7,394.9 345.1,387 348,388 "/>
<path class="st11" d="M345.5,397.2l-6.3-2l0.1-0.2c0.4-1.3,1.8-2,3.1-1.6l3.9,1.3L345.5,397.2z"/>
<polygon class="st8" points="359.8,395.5 357.8,395.5 356.8,387.6 359.8,387.6 "/>
<path class="st11" d="M353.9,397.3h6.3v-2.3h-4C354.9,395,353.9,396,353.9,397.3L353.9,397.3z"/>
<path class="st11" d="M359.8,392.9l-0.7-0.1c-0.9-0.1-1.7-0.2-2.6-0.5c-0.2-0.1-0.2-1.2-0.1-7.5c0.1-4.7,0.2-10.5,0-13.6
	c0-0.3-0.3-0.5-0.6-0.5c-0.2,0-0.4,0.1-0.5,0.3c-1.6,3.6-4.2,11.7-5.9,17c-0.6,1.9-1.1,3.3-1.4,4.2c-0.1,0.3-0.5,0.5-0.8,0.5
	c-1.4-0.4-1.3-0.5-3.4-1c-0.4-0.1-0.6-0.5-0.5-0.8c0.4-1.7,7.1-29.8,7.6-32.5c0.1-0.4,0.4-0.6,0.8-0.6c0,0,0,0,0,0
	c1.5,0.3,2.4,0.6,3.9,0.9c1.6,0.3,3.3,0.7,4.9,1l0,0c0.2,0,0.3,0.1,0.4,0.3c0.5,0.5,1,0.9,1.6,1.1c0.4,0.2-0.5,0.2-0.2,0.5
	c1.5,1.2-0.7,25.4-2,30.8C360.5,392.7,360.1,392.9,359.8,392.9L359.8,392.9z"/>
<path class="st11" d="M359.6,338.6c-0.2-1,1-3.2,0.7-4.2c-0.2-0.7-1.8-0.2-2.2-0.8c-0.4-0.6-1-1-1.7-1.1c-0.8,0-1.6,0.6-2.4,0.3
	c-0.8-0.4-1.1-1.3-0.7-2.1c0,0,0,0,0,0c0.4-0.7,1.1-1.3,1.8-1.6c1.2-0.7,2.7-1,4-0.7c0.8,0.3,1.5,0.8,2.1,1.3c0.6,0.5,1.2,1,1.6,1.6
	c0.8,1.3,0.8,3,0.1,4.3C362.3,337.1,361.1,338.1,359.6,338.6"/>
<path class="st10" d="M349.5,362.3c0.4-0.7,1.1-4.2,1.9-10c0.6-4,1.1-8,1.3-10.1c0-0.3,0.2-0.6,0.6-0.8c0.2-0.1,0.3-0.1,0.5-0.2
	c3.8-1.8,8.3-1.1,11.6,1.6l0,0l0,0c0,0,0.9,4.6-0.9,7.7c-1.7,3-1.7,11.1-1.7,11.2v0.1l-0.1,0c-2.7-0.8-13,0.6-13.1,0.6l-0.2,0
	L349.5,362.3z"/>
<path class="st1" d="M357,351.7h8c0.3,0,0.6,0.3,0.6,0.6l0,0c0,0.3-0.3,0.6-0.6,0.6h-8c-0.3,0-0.6-0.3-0.6-0.6l0,0
	C356.4,352,356.7,351.7,357,351.7z"/>
<path class="st1" d="M357,365.3h8c0.3,0,0.6,0.3,0.6,0.6l0,0c0,0.3-0.3,0.6-0.6,0.6h-8c-0.3,0-0.6-0.3-0.6-0.6l0,0
	C356.4,365.6,356.7,365.3,357,365.3z"/>
<path class="st1" d="M361.1,397.5c-0.2,0-0.3-0.1-0.3-0.3l-4-44.9c0-0.2,0.1-0.3,0.3-0.3c0.2,0,0.3,0.1,0.3,0.3l0,0l3.7,41.3
	l3.6-41.3c0-0.2,0.2-0.3,0.3-0.3c0.2,0,0.3,0.2,0.3,0.3l-3.9,44.9C361.4,397.4,361.3,397.5,361.1,397.5L361.1,397.5z"/>
<path class="st8" d="M358.5,365.5c-0.2-0.8,0.3-1.6,1.1-1.8c0.1,0,0.2,0,0.3,0l3.3-3.7l2.1,2.5l-3.8,2.8c0,0.8-0.7,1.5-1.5,1.5
	C359.3,366.7,358.7,366.2,358.5,365.5L358.5,365.5z"/>
<path class="st10" d="M360.5,362.9l5.2-7l-2.7-5.8l0.2-6.9l2.2-0.4l0,0c1.1,0.6,1.9,1.6,2.4,2.8c0.5,1.2,1.5,5.4,2.3,8.7
	c0.4,1.7-0.1,3.5-1.4,4.8l-6.4,6.4L360.5,362.9z"/>
<path class="st1" d="M338.5,395.6l7.2,1.7c0.3,0.1,0.6-0.1,0.7-0.3l6.2-16.4c0.1-0.1,0.1-0.3,0-0.4c-0.1-0.1-0.2-0.3-0.3-0.3
	l-5.4-2.1c-0.2-0.1-0.4-0.1-0.5,0c-0.1,0.1-0.2,0.2-0.3,0.4l0,0l-3.8,14.4l-0.1,0c-1.2,0.1-2.3,0.5-3.2,1.3
	C338.6,394.4,338.4,395,338.5,395.6z"/>
<rect x="346.8" y="383.6" transform="matrix(0.1053 -0.9944 0.9944 0.1053 -74.3567 691.1987)" class="st13" width="0.3" height="6.6"/>
<rect x="345.5" y="387.4" transform="matrix(0.4103 -0.9119 0.9119 0.4103 -152.0991 545.4279)" class="st13" width="0.3" height="5.8"/>
<polygon class="st13" points="350.9,384.9 344.7,382.9 344.9,382.6 351,384.6 "/>
<polygon class="st13" points="351.5,383.5 345.4,380.5 345.5,380.2 351.7,383.2 "/>
<rect x="344.6" y="390.5" transform="matrix(0.6495 -0.7603 0.7603 0.6495 -178.3581 400.0129)" class="st13" width="0.3" height="5.9"/>
<rect x="341.9" y="392.6" transform="matrix(0.9107 -0.413 0.413 0.9107 -132.4961 176.5161)" class="st13" width="0.3" height="4.3"/>
<path class="st7" d="M515.8,365.4c-1-0.2-1.6-1.2-1.4-2.2c0-0.1,0.1-0.2,0.1-0.3l-6.9-15.5l3.9-1l5.5,15.6c0.9,0.5,1.3,1.6,0.8,2.5
	C517.5,365.2,516.7,365.6,515.8,365.4z"/>
<path class="st10" d="M508.9,352.2c-0.2-0.1-0.4-0.3-0.5-0.5l-1.2-4c-0.5-1.2-0.1-2.5,1.1-3.1c1.2-0.5,2.5-0.1,3.1,1.1l2.3,3.5
	c0.3,0.4,0.1,0.9-0.2,1.2c0,0-0.1,0-0.1,0.1l-3.8,1.8C509.4,352.3,509.2,352.3,508.9,352.2z"/>
<path class="st3" d="M522.9,350.2l-4.2,3c-0.1,0.1-0.3,0.1-0.4,0l-1.1-0.9c-0.1-0.1-0.2-0.3-0.1-0.4c0,0,0,0,0-0.1l3.2-2.9
	c0.1-0.1,0.2-0.1,0.3-0.1l2.1,0.8c0.2,0.1,0.2,0.2,0.2,0.4C523,350.1,523,350.1,522.9,350.2z"/>
<path class="st9" d="M522.6,349.9c0-0.1,0-0.1-0.1-0.1l-1.9-0.7c0,0-0.1,0-0.1,0l-2.9,2.6l0,0c0,0,0,0.1,0,0.2c0,0,0,0,0,0l1,0.8
	c0,0,0.1,0,0.1,0L522.6,349.9C522.6,349.9,522.6,349.9,522.6,349.9z"/>
<polygon class="st7" points="507.6,394.6 509.7,394.6 510.7,386.4 507.6,386.4 "/>
<path class="st11" d="M507,393.9l4.2,0h0c1.5,0,2.7,1.2,2.7,2.7v0v0.1l-6.9,0L507,393.9z"/>
<polygon class="st7" points="500.5,394.6 502.6,394.6 503.6,386.4 500.5,386.4 "/>
<path class="st11" d="M499.9,393.9l4.2,0h0c1.5,0,2.7,1.2,2.7,2.7c0,0,0,0,0,0v0.1l-6.9,0L499.9,393.9z"/>
<path class="st11" d="M500,392.1c-0.1-0.2-0.2-0.4-0.2-0.6c-0.5-5.2,0.9-32.6,4.1-35l0,0l9.3-1.6l0,0l0.2,0.2c0,0.2,1.7,24.3-3,36.5
	c-0.1,0.3-0.4,0.5-0.7,0.5h-1.9c-0.4,0-0.8-0.3-0.8-0.8c0,0,0,0,0-0.1l1.5-23c0-0.1-0.1-0.3-0.2-0.3c-0.1,0-0.2,0.1-0.3,0.2
	l-4.2,23.3c-0.1,0.3-0.4,0.6-0.7,0.6l-2.4,0.2c0,0,0,0-0.1,0C500.3,392.3,500.1,392.3,500,392.1z"/>
<circle class="st7" cx="512.3" cy="336.6" r="4.3"/>
<path class="st10" d="M502,360.3c-0.2-0.2-0.3-0.4-0.3-0.7l1.7-8.1c-1.4-5.9,0.5-7,2.5-8.1l0,0l0.9-2.4c0.1-0.4,0.5-0.6,0.9-0.5
	c0,0,0.1,0,0.1,0l4.4,2.4c0.2,0.1,0.3,0.3,0.4,0.5c0.1,0.2,0.1,0.5,0,0.7l-0.3,0.9c0.8,1.1,2.2,5.6,0.8,7.3l1,5.8
	c0,0.4-0.2,0.8-0.7,1l-10.9,1.4c0,0-0.1,0-0.1,0C502.3,360.5,502.1,360.4,502,360.3z"/>
<path class="st7" d="M517.9,350.9c-0.1,0.1-0.1,0.1-0.2,0.2l-8.6-0.6l-0.9-1.9l-3,1l1.3,3.5c0.2,0.6,0.8,0.9,1.4,0.9l9.8-0.7
	c0.6,0.8,1.7,1,2.5,0.4c0.8-0.6,1-1.7,0.4-2.5s-1.7-1-2.5-0.4C518.1,350.8,518,350.9,517.9,350.9z"/>
<path class="st10" d="M508.8,350.6l-3.7,1.2c-0.4,0.1-0.9-0.1-1-0.5c0,0,0-0.1,0-0.1l-0.7-3.9c-0.4-1.1,0.2-2.4,1.4-2.7
	s2.4,0.2,2.7,1.4l1.8,3.5c0.2,0.4,0,0.9-0.3,1C508.9,350.6,508.9,350.6,508.8,350.6L508.8,350.6z"/>
<circle class="st11" cx="509.9" cy="329.8" r="3.5"/>
<path class="st11" d="M516.3,337.1c0.3,0.1,0.7,0,1-0.1c0.3-0.2,0.6-0.5,0.6-0.9c0.6-4.3-3-3.9-3.4-4.1c-0.3-0.2-0.5-0.3-0.8-0.6
	c-0.6-0.3-1.3-0.5-2-0.4c-0.8-0.1-1.6,0-2.4,0.3c-0.7,0.3-1.2,0.8-1.6,1.5c-0.4,0.6-0.6,1.3-0.8,2.1c-0.3,0.8-0.3,1.7-0.1,2.5
	c0.4,1.3,1.5,2.2,2.8,2.3c-0.2-1,0.3-2.1,1.2-2.6c0.7-0.4,1.6-0.5,2.4-0.3c0.5,0.1,1,0.2,1.6,0.2
	C515.3,337.1,515.9,337.1,516.3,337.1z"/>
<path class="st0" d="M849.7,395.5c0-9.5,7.7-17.2,17.2-17.1c9.5,0,17.1,7.7,17.1,17.1"/>
<path class="st1" d="M866.8,395.5c-0.3,0-0.5-0.2-0.5-0.5v-9c0-0.3,0.2-0.5,0.5-0.5c0.3,0,0.5,0.2,0.5,0.5v9
	C867.3,395.3,867.1,395.5,866.8,395.5z"/>
<path class="st1" d="M866.8,392.4c-0.1,0-0.2,0-0.3-0.1l-5.6-4.8c-0.2-0.2-0.2-0.5-0.1-0.7s0.5-0.2,0.7-0.1c0,0,0,0,0,0l5.6,4.8
	c0.2,0.2,0.2,0.5,0,0.7C867.1,392.3,867,392.4,866.8,392.4L866.8,392.4z"/>
<path class="st0" d="M902.6,395.5c0-9.5,7.7-17.2,17.2-17.1c9.5,0,17.1,7.7,17.1,17.1"/>
<path class="st1" d="M919.7,395.5c-0.3,0-0.5-0.2-0.5-0.5c0,0,0,0,0,0v-9c0-0.3,0.2-0.5,0.5-0.5c0.3,0,0.5,0.2,0.5,0.5v9
	C920.2,395.3,920,395.5,919.7,395.5z"/>
<path class="st1" d="M919.7,392.4c-0.1,0-0.2,0-0.3-0.1l-5.6-4.8c-0.2-0.2-0.2-0.5-0.1-0.7s0.5-0.2,0.7-0.1c0,0,0,0,0,0l5.6,4.8
	c0.2,0.2,0.2,0.5,0,0.7C920,392.3,919.9,392.4,919.7,392.4L919.7,392.4z"/>
</svg>
