<?xml version="1.0" encoding="utf-8"?>
<!-- Generator: Adobe Illustrator 26.0.1, SVG Export Plug-In . SVG Version: 6.00 Build 0)  -->
<svg version="1.1" id="Calque_1" xmlns="http://www.w3.org/2000/svg" xmlns:xlink="http://www.w3.org/1999/xlink" x="0px" y="0px"
	 viewBox="0 0 500 500" style="enable-background:new 0 0 500 500;" xml:space="preserve">
<style type="text/css">
	.st0{fill:#CDCCCC;}
	.st1{fill:#ED6885;}
	.st2{fill:#E7E6E6;}
	.st3{fill:#A7D7E7;}
	.st4{fill:#403E56;}
</style>
<path class="st0" d="M448.5,495.8l3.4-63.3c0,0,111.6-23.1,111.6-89.8s-182.4-74.9-200.7-44.2c-0.2,0.3-0.4,0.6-0.5,0.9
	c-22.7,38.3-9.9,88,28.7,110.1c13.2,7.6,28.9,14,47.3,17.6l-1.3,67.2"/>
<circle class="st1" cx="345" cy="87.3" r="63"/>
<path class="st2" d="M252.1,480.8l-71.1-4.5l-3.8-319.5c-0.1-7.8,3-15.3,8.5-20.8l76.1-76.1c10.7-10.7,27.4-11.4,39-1.8l82.6,68.7
	c6.7,5.6,10.5,13.8,10.4,22.6L391,389.6l35.9,49.9l0.1,0.1l6.1,52.7L252.1,480.8z"/>
<path class="st3" d="M264,134.2v-14.8c0-3.9,3.2-7.1,7.1-7.1h20.8c3.9,0,7.1,3.2,7.1,7.1v14.8c0,3.9-3.2,7.1-7.1,7.1h-20.8
	C267.2,141.3,264,138.1,264,134.2z"/>
<path class="st4" d="M220,249.2v-54.8c0-3.9,3.2-7.1,7.1-7.1h30.8c3.9,0,7.1,3.2,7.1,7.1v54.8c0,3.9-3.2,7.1-7.1,7.1h-30.8
	C223.2,256.3,220,253.1,220,249.2z"/>
<path class="st4" d="M289.7,377.5c-3.7-0.1-6.7-3.2-6.8-6.9l-1.6-53c-0.1-2.3,0.9-4.4,2.7-5.8c1.8-1.4,4-1.9,6.2-1.3l1.6,0.4
	c3.1,0.8,5.3,3.6,5.3,6.9v52.6c0,1.9-0.8,3.8-2.2,5.1c-1.3,1.3-3.1,2-4.9,2C289.8,377.5,289.8,377.5,289.7,377.5z"/>
<path class="st4" d="M195.2,375.5c-1.4-1.3-2.2-3.2-2.2-5.1v-52.6c0-3.2,2.2-6,5.3-6.9l1.6-0.4c2.2-0.6,4.5-0.1,6.2,1.3
	c1.8,1.4,2.8,3.5,2.7,5.8l-1.6,53c-0.1,3.7-3.1,6.7-6.8,6.9c-0.1,0-0.2,0-0.3,0C198.3,377.5,196.5,376.8,195.2,375.5z"/>
<path class="st4" d="M225,370.2v-55c0-3.9,3-7,6.9-7.1l28-0.7c3.9-0.1,7.1,3,7.3,6.9l1.6,55.7c0.1,1.9-0.7,3.8-2,5.1
	c-1.3,1.4-3.2,2.2-5.1,2.2h-29.6C228.2,377.3,225,374.1,225,370.2z"/>
<path class="st0" d="M390.6,407.8l22,39l2.5,43.9l17.5,1.1l-6-52l-36-50l0,0C387.4,395.4,387.4,402.2,390.6,407.8z"/>
<rect x="343.1" y="478.6" transform="matrix(0.9999 -1.367056e-02 1.367056e-02 0.9999 -6.5142 5.222)" class="st4" width="71.3" height="1"/>
<rect x="342.5" y="469.6" transform="matrix(1 -7.812188e-03 7.812188e-03 1 -3.6607 2.9536)" class="st4" width="67.6" height="1"/>
<rect x="341.9" y="460.9" transform="matrix(0.9998 -1.952760e-02 1.952760e-02 0.9998 -8.9388 7.3953)" class="st4" width="64.6" height="1"/>
<rect x="342.4" y="452.3" transform="matrix(0.9994 -3.318483e-02 3.318483e-02 0.9994 -14.8215 12.6434)" class="st4" width="62.1" height="1"/>
<rect x="341.9" y="444.4" transform="matrix(0.9994 -3.513462e-02 3.513462e-02 0.9994 -15.4007 13.3343)" class="st4" width="59.7" height="1"/>
<rect x="339.4" y="436.3" class="st4" width="58.1" height="1"/>
<rect x="338.1" y="429.6" transform="matrix(0.9999 -1.171787e-02 1.171787e-02 0.9999 -5.0147 4.3217)" class="st4" width="56.4" height="1"/>
<rect x="336.8" y="423.2" transform="matrix(0.9994 -3.318483e-02 3.318483e-02 0.9994 -13.8594 12.3182)" class="st4" width="54.7" height="1"/>
<rect x="335.5" y="415.8" transform="matrix(0.9998 -1.757543e-02 1.757543e-02 0.9998 -7.2605 6.4356)" class="st4" width="54" height="1"/>
<rect x="333.8" y="409.2" transform="matrix(0.9995 -3.123474e-02 3.123474e-02 0.9995 -12.6213 11.4337)" class="st4" width="51.7" height="1"/>
<rect x="332.3" y="402.5" transform="matrix(1 -9.765136e-03 9.765136e-03 1 -3.9187 3.514)" class="st4" width="51.3" height="1"/>
<path class="st3" d="M328.5,381.7v-67.8c0-3.9,3.2-7.1,7.1-7.1h32.8c3.9,0,7.1,3.2,7.1,7.1v67.8c0,3.9-3.2,7.1-7.1,7.1h-32.8
	C331.7,388.8,328.5,385.6,328.5,381.7z"/>
<path class="st0" d="M252.1,480.8l-58.1-3.7l-0.5,0v-45c0-5.7,4.6-10.3,10.3-10.3h57.4c5.7,0,10.3,4.6,10.3,10.3v48.7H271
	L252.1,480.8z"/>
<path class="st4" d="M332.5,258.7v-51.8c0-3.9,3.2-7.1,7.1-7.1h10.8c3.9,0,7.1,3.2,7.1,7.1v51.8c0,3.9-3.2,7.1-7.1,7.1h-10.8
	C335.7,265.8,332.5,262.6,332.5,258.7z"/>
<path class="st0" d="M343.5,485.8l-3-44l-9-42l-2.5-11.5l0,0c-5.1-3.5-12.1,0.4-11.7,6.6l0.2,4.9l9,42l3,44"/>
<path class="st2" d="M3.1,464.8l-71.1-4.5l-3.8-319.5c-0.1-7.8,3-15.3,8.5-20.8l76.1-76.1c10.7-10.7,27.4-11.4,39-1.8l82.6,68.7
	c6.7,5.6,10.5,13.8,10.4,22.6L142,373.6l35.9,49.9l0.1,0.1l6.1,52.7L3.1,464.8L3.1,464.8z"/>
<path class="st3" d="M15,118.2v-14.8c0-3.9,3.2-7.1,7.1-7.1h20.8c3.9,0,7.1,3.2,7.1,7.1v14.8c0,3.9-3.2,7.1-7.1,7.1H22.1
	C18.2,125.3,15,122.1,15,118.2z"/>
<path class="st4" d="M-29,233.2v-54.8c0-3.9,3.2-7.1,7.1-7.1H8.9c3.9,0,7.1,3.2,7.1,7.1v54.8c0,3.9-3.2,7.1-7.1,7.1h-30.8
	C-25.8,240.3-29,237.1-29,233.2z"/>
<path class="st4" d="M35.6,296.7c-1.5,1.2-2.4,3-2.3,5l1.6,53c0.1,3.2,2.7,5.8,5.9,5.9c1.7,0.1,3.2-0.5,4.4-1.7
	c1.2-1.2,1.9-2.7,1.9-4.4v-52.6c0-2.8-1.9-5.2-4.5-5.9l-1.6-0.4c-0.5-0.1-1.1-0.2-1.6-0.2C38,295.3,36.7,295.8,35.6,296.7z"/>
<path class="st4" d="M-53.8,359.5c-1.4-1.3-2.2-3.2-2.2-5.1v-52.6c0-3.2,2.2-6,5.3-6.9l1.6-0.4c2.2-0.6,4.5-0.1,6.2,1.3
	c1.8,1.4,2.8,3.5,2.7,5.8l-1.6,53c-0.1,3.7-3.1,6.7-6.8,6.9c-0.1,0-0.2,0-0.3,0C-50.7,361.5-52.5,360.8-53.8,359.5z"/>
<path class="st4" d="M-24,354.2v-55c0-3.9,3-7,6.9-7.1l28-0.7c0.1,0,0.1,0,0.2,0c3.8,0,7,3.1,7.1,6.9l1.6,55.7
	c0.1,1.9-0.7,3.8-2,5.1c-1.3,1.4-3.2,2.2-5.1,2.2h-29.6C-20.8,361.3-24,358.1-24,354.2z"/>
<path class="st0" d="M141.6,391.8l22,39l2.5,43.9l17.5,1.1l-6-52l-36-50l0,0C138.4,379.4,138.4,386.2,141.6,391.8z"/>
<rect x="94.1" y="462.6" transform="matrix(0.9999 -1.367056e-02 1.367056e-02 0.9999 -6.3188 1.8165)" class="st4" width="71.3" height="1"/>
<rect x="93.5" y="453.6" transform="matrix(1 -7.812188e-03 7.812188e-03 1 -3.5433 1.0078)" class="st4" width="67.6" height="1"/>
<rect x="92.9" y="444.9" transform="matrix(0.9998 -1.952760e-02 1.952760e-02 0.9998 -8.6738 2.5298)" class="st4" width="64.6" height="1"/>
<rect x="93.4" y="436.3" transform="matrix(0.9994 -3.318483e-02 3.318483e-02 0.9994 -14.4277 4.3716)" class="st4" width="62.1" height="1"/>
<rect x="92.9" y="428.4" transform="matrix(0.9994 -3.513462e-02 3.513462e-02 0.9994 -14.9923 4.5759)" class="st4" width="59.7" height="1"/>
<rect x="90.4" y="420.3" class="st4" width="58.1" height="1"/>
<rect x="89.1" y="413.6" transform="matrix(0.9999 -1.171787e-02 1.171787e-02 0.9999 -4.8444 1.4029)" class="st4" width="56.4" height="1"/>
<rect x="87.8" y="407.2" transform="matrix(0.9994 -3.318483e-02 3.318483e-02 0.9994 -13.4656 4.0464)" class="st4" width="54.7" height="1"/>
<rect x="86.5" y="399.8" transform="matrix(0.9998 -1.757543e-02 1.757543e-02 0.9998 -7.0177 2.0569)" class="st4" width="54" height="1"/>
<rect x="84.8" y="393.2" transform="matrix(0.9995 -3.123474e-02 3.123474e-02 0.9995 -12.243 3.6485)" class="st4" width="51.7" height="1"/>
<rect x="83.3" y="386.5" transform="matrix(1 -9.765136e-03 9.765136e-03 1 -3.7743 1.0818)" class="st4" width="51.3" height="1"/>
<path class="st3" d="M79.5,365.7v-67.8c0-3.9,3.2-7.1,7.1-7.1h32.8c3.9,0,7.1,3.2,7.1,7.1v67.8c0,3.9-3.2,7.1-7.1,7.1H86.6
	C82.7,372.8,79.5,369.6,79.5,365.7z"/>
<path class="st0" d="M3.1,464.8l-58.1-3.7l-0.5,0v-45c0-5.7,4.6-10.3,10.3-10.3h57.4c5.7,0,10.3,4.6,10.3,10.3v48.7H22L3.1,464.8z"
	/>
<path class="st4" d="M83.5,242.7v-51.8c0-3.9,3.2-7.1,7.1-7.1h10.8c3.9,0,7.1,3.2,7.1,7.1v51.8c0,3.9-3.2,7.1-7.1,7.1H90.6
	C86.7,249.8,83.5,246.6,83.5,242.7z"/>
<path class="st0" d="M94.5,469.8l-3-44l-9-42L80,372.3l0,0c-5.1-3.5-12.1,0.4-11.7,6.6l0.2,4.9l9,42l3,44"/>
<path class="st2" d="M-245.9,448.8l-71.1-4.5l-3.8-319.5c-0.1-7.8,3-15.3,8.5-20.8l76.1-76.1c10.7-10.7,27.4-11.4,39-1.8l82.6,68.7
	c6.7,5.6,10.5,13.8,10.4,22.6l-2.8,240.3l35.9,49.9l0.1,0.1l6.1,52.7L-245.9,448.8z"/>
<path class="st3" d="M-234,102.2V87.4c0-3.9,3.2-7.1,7.1-7.1h20.8c3.9,0,7.1,3.2,7.1,7.1v14.8c0,3.9-3.2,7.1-7.1,7.1h-20.8
	C-230.8,109.3-234,106.1-234,102.2z"/>
<path class="st4" d="M-278,217.2v-54.8c0-3.9,3.2-7.1,7.1-7.1h30.8c3.9,0,7.1,3.2,7.1,7.1v54.8c0,3.9-3.2,7.1-7.1,7.1h-30.8
	C-274.8,224.3-278,221.1-278,217.2z"/>
<path class="st4" d="M-208.3,345.5c-3.7-0.1-6.7-3.2-6.8-6.9l-1.6-53c-0.1-2.3,0.9-4.4,2.7-5.8s4-1.9,6.2-1.3l1.6,0.4
	c3.1,0.8,5.3,3.6,5.3,6.9v52.6c0,1.9-0.8,3.8-2.2,5.1c-1.3,1.3-3.1,2-4.9,2C-208.2,345.5-208.2,345.5-208.3,345.5z"/>
<path class="st4" d="M-299.6,279.5l1.6-0.4c4.3-1.1,8.4,2.2,8.3,6.6l-1.6,53c-0.1,3.5-2.9,6.3-6.4,6.4h0c-3.7,0.1-6.8-2.9-6.8-6.6
	v-52.6C-304.5,282.9-302.5,280.3-299.6,279.5L-299.6,279.5z"/>
<path class="st4" d="M-273,338.2v-55c0-3.9,3-7,6.9-7.1l28-0.7c3.9-0.1,7.1,3,7.3,6.9l1.6,55.7c0.1,1.9-0.7,3.8-2,5.1
	c-1.3,1.4-3.2,2.2-5.1,2.2h-29.6C-269.8,345.3-273,342.1-273,338.2z"/>
<path class="st0" d="M-107.4,375.8l22,39l2.5,43.9l17.5,1.1l-6-52l-36-50l0,0C-110.6,363.4-110.6,370.2-107.4,375.8z"/>
<rect x="-154.9" y="446.6" transform="matrix(0.9999 -1.367056e-02 1.367056e-02 0.9999 -6.1233 -1.5889)" class="st4" width="71.3" height="1"/>
<rect x="-155.5" y="437.6" transform="matrix(1 -7.812188e-03 7.812188e-03 1 -3.4259 -0.9379)" class="st4" width="67.6" height="1"/>
<rect x="-156.1" y="428.9" transform="matrix(0.9998 -1.952760e-02 1.952760e-02 0.9998 -8.4088 -2.3356)" class="st4" width="64.6" height="1"/>
<rect x="-155.6" y="420.3" transform="matrix(0.9994 -3.318483e-02 3.318483e-02 0.9994 -14.0339 -3.9002)" class="st4" width="62.1" height="1"/>
<rect x="-156.1" y="412.4" transform="matrix(0.9994 -3.513462e-02 3.513462e-02 0.9994 -14.5839 -4.1825)" class="st4" width="59.7" height="1"/>
<rect x="-158.6" y="404.3" class="st4" width="58.1" height="1"/>
<rect x="-159.9" y="397.6" transform="matrix(0.9999 -1.171787e-02 1.171787e-02 0.9999 -4.674 -1.516)" class="st4" width="56.4" height="1"/>
<rect x="-161.2" y="391.2" transform="matrix(0.9994 -3.318483e-02 3.318483e-02 0.9994 -13.0717 -4.2254)" class="st4" width="54.7" height="1"/>
<rect x="-162.5" y="383.8" transform="matrix(0.9998 -1.757543e-02 1.757543e-02 0.9998 -6.775 -2.3219)" class="st4" width="54" height="1"/>
<rect x="-164.2" y="377.2" transform="matrix(0.9995 -3.123474e-02 3.123474e-02 0.9995 -11.8648 -4.1368)" class="st4" width="51.7" height="1"/>
<rect x="-165.7" y="370.5" transform="matrix(1 -9.765136e-03 9.765136e-03 1 -3.6299 -1.3505)" class="st4" width="51.3" height="1"/>
<path class="st3" d="M-169.5,349.7v-67.8c0-3.9,3.2-7.1,7.1-7.1h32.8c3.9,0,7.1,3.2,7.1,7.1v67.8c0,3.9-3.2,7.1-7.1,7.1h-32.8
	C-166.3,356.8-169.5,353.6-169.5,349.7z"/>
<path class="st0" d="M-245.9,448.8l-58.1-3.7l-0.5,0v-45c0-5.7,4.6-10.3,10.3-10.3h57.4c5.7,0,10.3,4.6,10.3,10.3v48.7h-0.5
	L-245.9,448.8z"/>
<path class="st4" d="M-165.5,226.7v-51.8c0-3.9,3.2-7.1,7.1-7.1h10.8c3.9,0,7.1,3.2,7.1,7.1v51.8c0,3.9-3.2,7.1-7.1,7.1h-10.8
	C-162.3,233.8-165.5,230.6-165.5,226.7z"/>
<path class="st0" d="M-154.5,453.8l-3-44l-9-42l-2.5-11.5l0,0c-5.1-3.5-12.1,0.4-11.7,6.6l0.2,4.9l9,42l3,44"/>
<path class="st0" d="M-337.5,442.8l3.4-63.3c0,0,111.6-23.1,111.6-89.8s-182.4-74.9-200.7-44.2c-0.2,0.3-0.4,0.6-0.5,0.9
	c-22.7,38.3-9.9,88,28.7,110.1c13.2,7.6,28.9,14,47.3,17.6l-1.3,67.2"/>
<rect x="44.1" y="11.9" transform="matrix(6.444509e-02 -0.9979 0.9979 6.444509e-02 -424.6589 482.6433)" class="st0" width="2" height="911.8"/>
</svg>
