<?xml version="1.0" encoding="utf-8"?>
<!-- Generator: Adobe Illustrator 26.0.1, SVG Export Plug-In . SVG Version: 6.00 Build 0)  -->
<svg version="1.1" id="Calque_1" xmlns="http://www.w3.org/2000/svg" xmlns:xlink="http://www.w3.org/1999/xlink" x="0px" y="0px"
	 viewBox="0 0 1017.8 752.3" style="enable-background:new 0 0 1017.8 752.3;" xml:space="preserve">
<style type="text/css">
	.st0{fill:#F0F0F0;}
	.st1{fill:#E6E6E6;}
	.st2{fill:#F2F2F2;}
	.st3{fill:#9AC39A;}
	.st4{fill:#FF6584;}
	.st5{fill:#A5D7E8;}
	.st6{fill:#B0E9B0;}
	.st7{fill:#FFB6B6;}
	.st8{fill:#2F2E41;}
</style>
<path class="st0" d="M339.1,730.8c-31.1,0-62.1-0.5-93.1-1.4c-44.3-1.4-90-2.8-132.6-23.3c-29.8-14.3-56.1-37.3-76.2-66.5
	C24,620.2,14.1,598.7,8,576c-3-10.9-5.1-22-6.4-33.3c-3.6-30.4-1.1-61.1,7.5-90.5c4.2-14,9.9-27.6,17-40.4
	c31-55.8,87.6-93.2,155.2-102.8c0.6-0.1,1.1-0.1,1.7,0c0.3,0,0.6,0,0.9,0l0.4-0.1c1-0.3,2.1-0.5,3.1-0.7
	c104.3-13.5,214.6,13.8,318.9,78.9c80.6,50.4,187.5,77.5,326.8,82.9l2,0.1c38.8,1.9,76.2,15.8,108.4,40.1
	c31.4,23.6,55.4,55.7,69,92.6c1.6,4.5,3.1,9.1,4.5,13.8c2.5,8.9-0.4,17.9-8,24.7v0l-0.3,0.3c-0.8,0.7-1.7,1.4-2.6,2.1l-1.1,0.8
	c-8.9,6.4-15.9,11.4-24.3,15.3c-5.7,2.6-11.6,4.6-17.8,5.8c-33.9,7.2-68.4,13.8-102.4,19.8c-66.1,11.6-133.9,21.1-201.6,28.4
	C552.7,725.2,445.9,730.9,339.1,730.8z M182.2,311c-0.2,0-0.4,0-0.6,0c-67,9.4-123.1,46.5-153.8,101.7c-7,12.7-12.7,26.1-16.8,40
	C2.5,481.9,0,512.4,3.6,542.5c1.3,11.1,3.4,22.2,6.4,33c6,22.5,15.8,43.8,28.9,63c19.9,28.9,46,51.7,75.4,65.8
	c42.2,20.3,87.7,21.7,131.8,23.1c137.7,4.3,275.6-0.9,412.6-15.6c67.6-7.2,135.4-16.8,201.4-28.4c34-5.9,68.4-12.6,102.3-19.8
	c6-1.2,11.8-3.1,17.3-5.7c8.2-3.8,15.2-8.8,24-15.1l1.1-0.8c0.8-0.6,1.5-1.1,2.3-1.8l0.2-0.2c7.2-6.3,10.1-14.7,7.7-22.9v0
	c-1.3-4.6-2.8-9.2-4.4-13.7C983.3,528.8,912.8,476,835,472.1l-2-0.1c-63.6-2.5-119.2-9.3-170.1-21c-60.7-13.9-113.8-34.8-157.6-62.2
	c-103.9-64.9-213.7-92-317.6-78.6c-1,0.1-1.9,0.4-2.9,0.6l-0.7,0.2c-0.4,0-0.8,0-1.2,0C182.7,311,182.5,311,182.2,311z"/>
<path class="st1" d="M1008,640.9L1008,640.9c-0.8,0.7-1.7,1.4-2.5,2c-14.7,10.5-24.7,17.9-42.8,21.7c-34,7.2-68.1,13.8-102.4,19.8
	c-66.8,11.7-134,21.2-201.5,28.4c-137.1,14.7-275,19.9-412.7,15.6c-45.9-1.4-90.1-3-132.2-23.2C83.2,690.4,57.3,667,38.1,639
	c-19.6-28.4-31.4-61.9-35.5-96.4c9.5-4.2,19.6-6.8,30-7.8c35.9-3.4,71.2,9.7,103.8,25c32.6,15.3,64.7,33.1,100,40.2
	c52.1,10.4,105.8-3.7,155.8-21.8c49.9-18.1,99.1-40.4,151.7-47.3c70.6-9.2,141.5,10.2,210.1,29.5c73.1,20.5,146.1,40.9,219.2,61.4
	c10.4,2.9,21.3,6,29.4,13.2C1004.6,636.8,1006.4,638.8,1008,640.9z"/>
<path class="st2" d="M1008,640.9L1008,640.9c-0.8,0.7-1.7,1.4-2.5,2c-9.2,6.6-16.6,11.9-25.2,16c-29.8,2.9-59.6,5.5-89.4,7.6
	c-76.8,5.5-153.8,8.4-230.9,8.8c-156.5,0.8-321,5.7-458-70.3c-45.6-25.3-111.6,26.6-156.8-1.2c-13-8-25.1-17.4-36.1-28.1
	c-3-10.9-5.1-21.9-6.4-33.1c-3.6-30.2-1.1-60.9,7.5-90.1c4.2-14,9.8-27.5,16.9-40.2c21,7.5,41.1,18.4,60.2,29.8
	c35.1,21,69.3,44.9,108.4,57c57.6,17.8,120,8,178.5-6.7s116.6-34.2,176.9-35.9c80.9-2.2,158.7,27.9,234,57.5
	c75.5,29.7,151,59.5,226.6,89.2c1.7,4.5,3.1,9.1,4.5,13.7C1018.7,626.4,1014.8,635,1008,640.9z"/>
<path class="st3" d="M271.7,257c-11.4-7.7-10.3-24.4,1.8-31c0.2-0.1,0.5-0.3,0.7-0.4c0.6-2.9,1.2-5.8,1.8-8.7
	c3.5,3.7,10.5,3,13.3-1.3c-9.6-20.5-22.2-39.4-37.4-56.1c-6.9-7.6-7-19.1-0.3-26.8c0.1-0.1,0.1-0.1,0.2-0.2
	c8.6-2.9,16.7-7,24.2-12.2c-25.5-41-74.1-73.5-85.6-120.3c-34.8,37.3-38.7,50.5-73.4,87.8c0,0-32.9,29.7-40,45.7
	c1.7,1.8,17.4,6.2,18,9.8c11.9,1,32.6-12.1,32.6-12.1s-45.1,48-58.7,77.6c-1.2,2.7-2.4,5.7-1.4,8.5c0.8,2.2,3.8,3.5,5.7,2.6
	c-2.3,2.2-4.1,4.8-5.4,7.7c8.2,5.2,18.9,4.1,25.8-2.6c-1.9,3.6-3.8,7.1-5.7,10.7l0,0c8.2,2.7,12.6,11.5,10,19.6
	c-0.8,2.5-2.3,4.8-4.2,6.6c-11.8,11-22.6,22.6-26.6,30.2c-3.7,7.2,34.5,15.8,43.1,15.4s16.6-4.1,24.4-7.8c-0.4,3.5,0.3,7.1,1.9,10.3
	c8.6,2.1,17.7,0.6,25.2-4.1c-0.3,7.1,8.6,11,14.8,9c-3.1,49-0.8,117.8,2.1,189.2h7.4V317.6c2,1,4.1,1.7,6.2,2.1
	c15.1,2.7,33.3,4.3,43.2-7.5c11.3,11.4,32,11.2,43.3-0.2c-1.1,2,0.6,5.3,3.1,5.8c3,0.6,5.8-1.1,8.3-2.8c11.3-7.6,22.7-15.2,34-22.8
	C310,282.8,290.1,269.4,271.7,257z"/>
<circle class="st4" cx="612.4" cy="198.6" r="35.6"/>
<path class="st5" d="M692.2,181.7c-2.1-6.9-7.9-11.4-14.9-12.4c-0.1,0-0.2,0-0.2,0c-0.1,0-0.2-0.1-0.3-0.1c-10-1.2-20.1,1-28.6,6.2
	c-8.2,5.2-17.9,7.5-27.6,7.9c-0.1,0-0.1,0-0.2,0c-7.4,0.5-13.7,5.6-15.8,12.7c-0.2,0.9,0.2,1.8,0.9,2.3c1.1,0.9,2.4,1.6,3.7,1.9
	c3,0.6,5.9,1.2,8.9,1.7c5.8,1,11.7,1.8,17.5,2.5c11.9,1.3,23.9,1.7,35.9,1.4c4-0.1,7.8-0.3,11.5-2c2.7-1.3,4.9-3.3,6.6-5.8
	C692.9,193.2,693.8,187.2,692.2,181.7z"/>
<path class="st5" d="M618.1,229.2c-2.1-6.9-7.9-11.4-14.9-12.4c-0.1,0-0.2,0-0.2,0c-0.1,0-0.2-0.1-0.3-0.1c-10-1.2-20.1,1-28.6,6.2
	c-8.2,5.1-17.9,7.5-27.6,7.9c-0.1,0-0.1,0-0.2,0c-7.4,0.5-13.7,5.6-15.8,12.7c-0.2,0.9,0.2,1.8,0.9,2.3c1.1,0.9,2.4,1.6,3.7,1.9
	c3,0.6,5.9,1.2,8.9,1.7c5.8,1,11.7,1.8,17.5,2.5c11.9,1.3,23.9,1.7,35.9,1.4c4-0.1,7.8-0.3,11.5-2c2.7-1.3,4.9-3.3,6.6-5.8
	C618.9,240.7,619.7,234.7,618.1,229.2z"/>
<path class="st6" d="M919.7,378c-11.4-7.7-10.3-24.4,1.8-31c0.2-0.1,0.5-0.3,0.7-0.4c0.6-2.9,1.2-5.8,1.8-8.7
	c3.5,3.7,10.5,3,13.3-1.3c-9.6-20.5-22.2-39.4-37.4-56.1c-6.9-7.6-7-19.1-0.3-26.8c0.1-0.1,0.1-0.1,0.2-0.2
	c8.6-2.9,16.7-7,24.2-12.2c-25.5-41-74.1-73.5-85.6-120.3c-34.8,37.3-38.7,50.5-73.4,87.8c0,0-32.9,29.7-40,45.7
	c1.7,1.8,17.4,6.2,18,9.8c11.9,1,32.6-12.1,32.6-12.1s-45.1,48-58.7,77.6c-1.2,2.7-2.4,5.7-1.4,8.5c0.8,2.2,3.8,3.5,5.7,2.6
	c-2.3,2.2-4.1,4.8-5.4,7.7c8.2,5.2,18.9,4.1,25.8-2.6c-1.9,3.6-3.8,7.1-5.7,10.7l0,0c8.2,2.7,12.6,11.5,10,19.6
	c-0.8,2.5-2.3,4.8-4.2,6.6c-11.8,11-22.6,22.6-26.6,30.2c-3.7,7.2,34.5,15.8,43.1,15.4s16.6-4.1,24.4-7.8c-0.4,3.5,0.3,7.1,1.9,10.3
	c8.6,2.1,17.7,0.6,25.2-4.1c-0.3,7.1,8.6,11,14.8,9c-3.1,49-0.8,117.8,2.1,189.2h7.4V438.6c2,1,4.1,1.7,6.2,2.1
	c15.1,2.7,33.3,4.3,43.2-7.5c11.3,11.4,32,11.2,43.3-0.2c-1.1,2,0.6,5.3,3.1,5.8c3,0.6,5.8-1.1,8.3-2.8c11.3-7.6,22.7-15.2,34-22.8
	C958,403.8,938.1,390.4,919.7,378z"/>
<path class="st1" d="M63,568c2,0.1,3.7-1.5,3.8-3.4c0-1.1-0.4-2.1-1.2-2.8c-0.1-0.4-0.2-0.6-0.2-1c0-0.1,0.1-0.2,0.1-0.2
	c2.1-4.9,7.8-7.2,12.7-5.2c2.3,1,4.2,2.9,5.2,5.2c2.9,7.1,6.7,14.1,7.6,21.6c0.4,3.3,0.2,6.6-0.5,9.9c6.9-15,10.4-31.3,10.5-47.8
	c0-4.1-0.2-8.3-0.7-12.4c-0.4-3.4-0.9-6.7-1.6-10c-3.7-18-11.6-35-23.1-49.3c-5.6-3-10.1-7.7-12.9-13.4c-1-2-1.7-4.2-2.1-6.5
	c0.6,0.1,1.3,0.1,1.9,0.2c0.2,0,0.4,0,0.6,0l0.1,0c2,0.1,3.6-1.4,3.7-3.4c0-0.9-0.2-1.7-0.8-2.4c-0.3-0.3-0.5-0.7-0.8-1
	c-0.4-0.5-0.8-1-1.2-1.5c0,0-0.1-0.1-0.1-0.2c-0.5-0.6-0.9-1.2-1.4-1.7c0.9-1.3,2-2.5,3.4-3.3c4.7-2.8,11.3-0.9,14.7,3.4
	c3.4,4.3,4.1,10.3,2.9,15.7c-1.2,4.6-3.1,8.9-5.7,12.8c0.3,0.3,0.5,0.6,0.8,1c4.7,6,8.8,12.5,12.2,19.4c-0.8-7.7,0.2-15.4,2.9-22.6
	c2.8-6.7,8-12.4,12.6-18.2c5.5-7,16.8-3.9,17.8,4.9c0,0.1,0,0.2,0,0.3c-0.7,0.4-1.4,0.8-2,1.2c-2.3,1.5-2.9,4.5-1.4,6.8
	c0.8,1.1,2,1.9,3.3,2.1l0.1,0c-0.2,2.5-0.7,4.9-1.3,7.3c-3.6,13.5-12.6,24.9-25,31.5c-0.4,0.2-0.8,0.4-1.2,0.6
	c1.8,5.2,3.3,10.5,4.4,15.9c1,4.8,1.7,9.6,2,14.4c0.5,6.1,0.4,12.2-0.1,18.3l0-0.2c1.3-6.8,4.9-12.9,10.2-17.3
	c7.9-6.5,19-8.9,27.5-14c2.6-1.7,6.1-0.9,7.8,1.7c0.7,1.1,1,2.5,0.8,3.8c0,0.1,0,0.2,0,0.2c-1.3,0.5-2.5,1.1-3.7,1.8
	c-0.7,0.4-1.4,0.8-2,1.2c-2.3,1.5-2.9,4.5-1.4,6.8c0.8,1.1,2,1.9,3.3,2.1l0.1,0c0.1,0,0.1,0,0.2,0c-2.2,5.2-5.2,9.9-9,14.1
	c-9.4,10.1-22.6,15.9-36.4,16h0c-1.9,8.1-4.5,15.9-8,23.4H63.7c-0.1-0.3-0.2-0.6-0.3-1c2.7,0.2,5.3,0,7.9-0.5
	c-2.1-2.6-4.3-5.2-6.4-7.9c0,0-0.1-0.1-0.1-0.2c-1.1-1.3-2.2-2.7-3.2-4l0,0C61.5,576.1,62,572,63,568L63,568z"/>
<path class="st1" d="M918,596c2,0.1,3.7-1.5,3.8-3.4c0-1.1-0.4-2.1-1.2-2.8c-0.1-0.4-0.2-0.6-0.2-1c0-0.1,0.1-0.2,0.1-0.2
	c2.1-4.9,7.8-7.2,12.7-5.2c2.3,1,4.2,2.9,5.2,5.2c2.9,7.1,6.7,14.1,7.6,21.6c0.4,3.3,0.2,6.6-0.5,9.9c6.9-15,10.4-31.3,10.5-47.8
	c0-4.1-0.2-8.3-0.7-12.4c-0.4-3.4-0.9-6.7-1.6-10c-3.7-18-11.6-35-23.1-49.3c-5.6-3-10.1-7.7-12.9-13.4c-1-2-1.7-4.2-2.1-6.5
	c0.6,0.1,1.3,0.1,1.9,0.2c0.2,0,0.4,0,0.6,0l0.1,0c2,0.1,3.6-1.4,3.7-3.4c0-0.9-0.2-1.7-0.8-2.4c-0.3-0.3-0.5-0.7-0.8-1
	c-0.4-0.5-0.8-1-1.2-1.5c0,0-0.1-0.1-0.1-0.2c-0.5-0.6-0.9-1.2-1.4-1.7c0.9-1.3,2-2.5,3.4-3.3c4.7-2.8,11.3-0.9,14.7,3.4
	c3.4,4.3,4.1,10.3,2.9,15.7c-1.2,4.6-3.1,8.9-5.7,12.8c0.3,0.3,0.5,0.6,0.8,1c4.7,6,8.8,12.5,12.2,19.4c-0.8-7.7,0.2-15.4,2.9-22.6
	c2.8-6.7,8-12.4,12.6-18.2c5.5-7,16.8-3.9,17.8,4.9c0,0.1,0,0.2,0,0.3c-0.7,0.4-1.4,0.8-2,1.2c-2.3,1.5-2.9,4.5-1.4,6.8
	c0.8,1.1,2,1.9,3.3,2.1l0.1,0c-0.2,2.5-0.7,4.9-1.3,7.3c-3.6,13.5-12.6,24.9-25,31.5c-0.4,0.2-0.8,0.4-1.2,0.6
	c3.4,9.8,5.6,20,6.4,30.3c0.5,6.1,0.4,12.2-0.1,18.3l0-0.2c1.3-6.8,4.9-12.9,10.2-17.3c7.9-6.5,19-8.9,27.5-14
	c2.6-1.7,6.1-0.9,7.8,1.7c0.7,1.1,1,2.5,0.8,3.8c0,0.1,0,0.2,0,0.2c-1.3,0.5-2.5,1.1-3.7,1.8c-0.7,0.4-1.4,0.8-2,1.2
	c-2.3,1.5-2.9,4.5-1.4,6.8c0.8,1.1,2,1.9,3.3,2.1l0.1,0c0.1,0,0.1,0,0.2,0c-2.2,5.2-5.2,9.9-9,14.1c-9.4,10.1-22.6,15.9-36.4,16h0
	c-1.9,8.1-4.5,15.9-8,23.4h-28.7c-0.1-0.3-0.2-0.6-0.3-1c2.7,0.2,5.3,0,7.9-0.5c-2.1-2.6-4.3-5.2-6.4-7.9c0,0-0.1-0.1-0.1-0.2
	c-1.1-1.3-2.2-2.7-3.2-4l0,0C916.5,604.1,917,600,918,596L918,596z"/>
<path class="st3" d="M577,513c2,0.1,3.7-1.5,3.8-3.4c0-1.1-0.4-2.1-1.2-2.8c-0.1-0.4-0.2-0.6-0.2-1c0-0.1,0.1-0.2,0.1-0.2
	c2.1-4.9,7.8-7.2,12.7-5.2c2.3,1,4.2,2.9,5.2,5.2c2.9,7.1,6.7,14.1,7.6,21.6c0.4,3.3,0.2,6.6-0.5,9.9c6.9-15,10.4-31.3,10.5-47.8
	c0-4.1-0.2-8.3-0.7-12.4c-0.4-3.4-0.9-6.7-1.6-10c-3.7-18-11.6-35-23.1-49.3c-5.6-3-10.1-7.7-12.9-13.4c-1-2-1.7-4.2-2.1-6.5
	c0.6,0.1,1.3,0.1,1.9,0.2c0.2,0,0.4,0,0.6,0l0.1,0c2,0.1,3.6-1.4,3.7-3.4c0-0.9-0.2-1.7-0.8-2.4c-0.3-0.3-0.5-0.7-0.8-1
	c-0.4-0.5-0.8-1-1.2-1.5c0,0-0.1-0.1-0.1-0.2c-0.5-0.6-0.9-1.2-1.4-1.7c0.9-1.3,2-2.5,3.4-3.3c4.7-2.8,11.3-0.9,14.7,3.4
	c3.4,4.3,4.1,10.3,2.9,15.7c-1.2,4.6-3.1,8.9-5.7,12.8c0.3,0.3,0.5,0.6,0.8,1c4.7,6,8.8,12.5,12.2,19.4c-0.8-7.7,0.2-15.4,2.9-22.6
	c2.8-6.7,8-12.4,12.6-18.2c5.5-7,16.8-3.9,17.8,4.9c0,0.1,0,0.2,0,0.3c-0.7,0.4-1.4,0.8-2,1.2c-2.3,1.5-2.9,4.5-1.4,6.8
	c0.8,1.1,2,1.9,3.3,2.1l0.1,0c-0.2,2.5-0.7,4.9-1.3,7.3c-3.6,13.5-12.6,24.9-25,31.5c-0.4,0.2-0.8,0.4-1.2,0.6
	c3.5,9.8,5.6,20,6.4,30.3c0.5,6.1,0.4,12.2-0.1,18.3l0-0.2c1.3-6.8,4.9-12.9,10.2-17.3c7.9-6.5,19-8.9,27.5-14
	c2.6-1.7,6.1-0.9,7.8,1.7c0.7,1.1,1,2.5,0.8,3.8c0,0.1,0,0.2,0,0.2c-1.3,0.5-2.5,1.1-3.7,1.8c-0.7,0.4-1.4,0.8-2,1.2
	c-2.3,1.5-2.9,4.5-1.4,6.8c0.8,1.1,2,1.9,3.3,2.1l0.1,0c0.1,0,0.1,0,0.2,0c-2.2,5.2-5.2,9.9-9,14.1c-9.4,10.1-22.6,15.9-36.4,16h0
	c-1.9,8.1-4.5,15.9-8,23.4h-28.7c-0.1-0.3-0.2-0.6-0.3-1c2.7,0.2,5.3,0,7.9-0.5c-2.1-2.6-4.3-5.2-6.4-7.9c0,0-0.1-0.1-0.1-0.2
	c-1.1-1.3-2.2-2.7-3.2-4l0,0C575.5,521.1,576,517,577,513L577,513z"/>
<polygon class="st7" points="394.7,731 406.7,727.5 398.7,678.4 381,683.7 "/>
<path class="st7" d="M321,711.7c0.7,0.6,1.5,1.3,2.2,1.9c1.5,1.3,3,2.5,4.5,3.7c0.8,0.6,1.5,1.2,2.3,1.8l0,0l0,0l0,0l1.2,0.5
	l2.6-4.5l1.2-2.1l1.7-2.9l3.1-5.4l16.2-28.3l-17-7.2l-1.1,2.6l0,0l-0.5,1.3l-10.2,24.1l-2.1,4.9l-0.1,0.1l-1.2,2.9l-1.1,2.6
	l-1.2,2.9L321,711.7z"/>
<path class="st8" d="M232.1,589.3c0.8,2,1.7,4,2.6,5.9c1.6,3.7,3.3,7.3,5.1,10.8c0,0,0,0,0,0c1.1,1.4,2.4,2.7,3.8,3.9
	c0.1,0.1,0.1,0.1,0.2,0.2c1.1,0.8,2.2,1.5,3.4,2c0.4,0.2,0.9,0.4,1.3,0.6c1.6,0.7,3.2,1.3,4.8,1.8c2.8,1,5.6,1.8,8.4,2.5
	c0.2,0.1,0.5,0.1,0.7,0.2c11.6,2.7,23.2,3.1,35.5,2.8c6.1-0.2,12.3-0.6,18.7-1c2.1-0.1,4.2-0.3,6.4-0.4c0.2,0,0.3,0,0.5,0
	c3.1-0.2,6.2-0.3,9.3-0.5c4-0.2,8.1-0.3,12.4-0.4l-1.2,5.8c-1,4.5-2.6,8.7-4.9,12.7c-2.6,4.9-4.6,8.8-3,17.8l0.8,4.4
	c-2.2,3.9-2.4,8.6-0.5,12.7l0.2,0.5l-16.7,28.2l-1.1,1.8l6.1,1l7.5,1.2l12.7,2l24.1-33.9l1.2-1.6l0-0.1l9.3-70.9
	c0.1-0.6,0.1-1.3,0.1-1.9c0.2-5.8-1.9-11.5-5.9-15.8c-3.8-4.1-9.1-6.5-14.7-6.7l-6.4-0.2l-13.1-0.4l-9.2-0.3l-0.2,0l-27.2-0.8
	l-0.7-8.1l-0.3-0.2l-10.6-5.9l-36.5-20.3l-0.1,0l-2.4-1.3l-0.4,0.4c-0.1,0.1-0.2,0.3-0.3,0.4c-3.2,4.1-6,8.6-8.4,13.2
	c-3.9,7.6-7.3,15.5-10.3,23.6c-0.1,0.3-0.2,0.7-0.4,1l0,0.1c0,0.1-0.1,0.2-0.1,0.2C231.2,579.9,231.2,584.5,232.1,589.3z"/>
<path class="st8" d="M234.6,563c0.2-0.5,0.4-1,0.7-1.5c1.9-3.7,4-7.3,6.4-10.8c2.6-4,5.7-8.2,9.2-12.7c1.7-2.2,3.5-4.4,5.5-6.8
	c1-1.2,2-2.4,3-3.6c0-0.1,0.1-0.1,0.1-0.2l0.3-0.4l37.5,11.2l0,5.1l2.7,7.3l-0.2,0.2c0,0,0,0,0,0v-1l1,1l9.7,12l0.1,0l21.6,0.6
	l22.3,0.6l12,0.3c5.6,0.2,10.9,2.6,14.7,6.7c4,4.3,6.1,9.9,5.9,15.8c0,0.6-0.1,1.2-0.1,1.8l6.9,28c4.1,16.7,5.7,34,4.7,51.2l4,27.2
	l-1.2-0.1l-17.5-1.1l-4.6-0.3l-7.7-16.2c-0.9-1.8-1.7-3.7-2.4-5.6c-1.2-3.1-2.2-6.3-3-9.6l-13.5-54.9c-1.7,0-3.4,0-5.1,0
	c-7.8,0-15.2-0.1-22.3-0.5c-23.1-1.1-42.8-4-59.9-8.9c-4.8-1.4-9.4-2.9-13.9-4.6c-1.6-0.6-3.2-1.3-4.8-1.9c-0.4-0.2-0.7-0.3-1.1-0.5
	c-6.6-2.9-11.3-8.9-12.5-16C232.5,571,233,566.8,234.6,563z"/>
<path class="st8" d="M392.3,722.9l13-3.9l2-0.6l1.8,7.9l20.4,8c2.6,1,3.9,4,2.9,6.6c-0.6,1.6-1.9,2.7-3.6,3.1l-22,5.2l-5.6-6.9
	l0.4,8.2l-8.3,1.9l-4.2-28.5L392.3,722.9z"/>
<polygon class="st8" points="319.9,699.7 318.8,701.5 319.6,701.6 "/>
<path class="st8" d="M323.7,702.7l12,6.4l1.9,1l-4.2,6.9l8.9,20c1.1,2.6,0,5.6-2.6,6.7c-1.5,0.7-3.3,0.6-4.7-0.3l-19.2-11.8l0.9-8.9
	l-5.5,6.1l-7.2-4.4l17-23.2L323.7,702.7z"/>
<path class="st7" d="M410.2,338.5c0.4,5-3.3,9.4-8.3,9.9c-0.5,0-1.1,0-1.6,0L387,377.9l-9-14.2l14-25.8c0.8-5,5.5-8.4,10.5-7.6
	C406.6,330.9,409.8,334.3,410.2,338.5L410.2,338.5z"/>
<path class="st5" d="M376.3,426.2l-60.9,46.6c-10.1,7.7-24.5,5.8-32.2-4.3l0,0c-7.7-10.1-5.8-24.5,4.3-32.2c1.1-0.9,2.3-1.6,3.6-2.2
	l60.8-30.8l27.2-52.9l18.2,5.4L376.3,426.2z"/>
<path class="st5" d="M246.5,481.6l-1.2,45.2c-17,28.7-18.9,42.7-14.2,50.1l69.9-25.5l1.2-2.8l3.7-20.2l6.6-20.9
	c1.2-2.2,17-15.6,2.2-41l-29.8-40.2l-23.9-1.4c-3.9,10.1,3.2,15.6-3.9,18C240.8,457.7,243.2,460.1,246.5,481.6z"/>
<path class="st7" d="M199,608.6c-2-4.6,0-10,4.6-12c0.5-0.2,1-0.4,1.5-0.5l2.9-32.2l13.1,10.5l-4.8,29c0.9,5-2.4,9.7-7.4,10.6
	C204.8,614.7,200.7,612.5,199,608.6L199,608.6z"/>
<path class="st5" d="M202.3,514.7l42.4-64c7-10.5,21.2-13.4,31.8-6.5l0,0c10.6,7,13.5,21.2,6.5,31.8c-0.8,1.2-1.7,2.3-2.6,3.3
	l-47.4,49l-8.4,58.9l-19,0.8L202.3,514.7z"/>
<path class="st8" d="M292.1,370.1c8.5,16.7,2.9,36-12.8,46.1c-17,11-39,8.6-46.1-12.8c-7.9-23.7-1.4-33.9,12.8-46.1
	C262.6,343.1,283,352.1,292.1,370.1z"/>
<path class="st7" d="M250.5,407.2c9,11.8,25.8,14,37.5,5c11.7-9,14-25.7,5.1-37.5l-0.2-0.3c-9.2-11.5-26.1-13.4-37.6-4.2
	C244,379.3,241.9,395.6,250.5,407.2L250.5,407.2z"/>
<path class="st8" d="M300.3,367.4c-4.3,4.1-9.7,7.1-15.4,8.7c-1.2-1.3-2.5-2.5-4.1-3.4c0.7,1.5,1.2,3.2,1.5,4.8
	c-2.6,5.4-13.1,9.2-23.2,13.1l-13.3-23.5l17.7-10C277.6,347.4,294.3,351.6,300.3,367.4z"/>
<path class="st8" d="M235.7,357.4c-2.4-1.1-5.5-0.4-7.8,1.1c-2.1,1.6-3.9,3.7-5.1,6.2c-2.2,3.9-3.7,8.2-4.6,12.5
	c-0.8,3.8-0.6,8.4,2.8,10.4c2.8,1.7,6.9,0.6,9.5-1.6c2.6-2.2,4.1-5.3,5.4-8.3s2.5-6.2,4.7-8.7l-2.4,1.1c0.7-2.3,1.1-4.6,1-7
	C239.2,360.7,237.9,358.5,235.7,357.4z"/>
<path class="st8" d="M266.3,360.5l-18.9,10.7c-10.7,6-14.4,19.6-8.4,30.3l0,0c8.8,15.5,27.8,21.7,44.1,14.5l-17.3-15.3l23.5,12
	l5-2.8C269,405.2,264.2,385.4,266.3,360.5z"/>
</svg>
