<svg xmlns="http://www.w3.org/2000/svg" width="375" height="231" fill="none" viewBox="0 0 375 231">
  <g clip-path="url(#a)">
    <path fill="#CCC" d="m390.603 229.795 1.639-30.517S446 188.121 446 155.963s-87.848-36.095-96.699-21.329l-.263.443c-10.932 18.455-4.76 42.415 13.842 53.073a74.567 74.567 0 0 0 22.806 8.503l-.624 32.419"/>
    <path fill="#FF6884" d="M340.744 63.182c16.761 0 30.348-13.602 30.348-30.381S357.505 2.42 340.744 2.42s-30.349 13.602-30.349 30.381 13.588 30.381 30.349 30.381Z"/>
    <path fill="#E6E6E6" d="m295.972 222.561-34.228-2.184-1.846-154.076a14.058 14.058 0 0 1 4.087-10.046l36.669-36.708a13.88 13.88 0 0 1 18.793-.862l39.794 33.139a13.92 13.92 0 0 1 5.03 10.905l-1.367 115.873 17.295 24.047.037.051 2.931 25.425-87.195-5.564Z"/>
    <path fill="#A5D7E8" d="M301.724 55.422v-7.145a3.423 3.423 0 0 1 3.417-3.42h10.027a3.422 3.422 0 0 1 3.416 3.42v7.145a3.422 3.422 0 0 1-3.416 3.42h-10.027a3.423 3.423 0 0 1-3.417-3.42Z"/>
    <path fill="#3F3D56" d="M280.528 110.879V84.445a3.423 3.423 0 0 1 3.417-3.42h14.844a3.423 3.423 0 0 1 3.417 3.42v26.434a3.422 3.422 0 0 1-3.417 3.42h-14.844a3.422 3.422 0 0 1-3.417-3.42Zm33.555 61.877a3.428 3.428 0 0 1-3.294-3.318l-.75-25.55a3.39 3.39 0 0 1 1.294-2.782 3.387 3.387 0 0 1 3.001-.623l.751.2a3.425 3.425 0 0 1 2.536 3.305v25.35c0 .936-.371 1.81-1.044 2.46a3.38 3.38 0 0 1-2.369.959l-.125-.001Zm-45.518-.958a3.392 3.392 0 0 1-1.043-2.461v-25.349a3.425 3.425 0 0 1 2.536-3.305l.751-.2a3.386 3.386 0 0 1 3.001.623 3.393 3.393 0 0 1 1.294 2.782l-.751 25.55a3.427 3.427 0 0 1-3.294 3.318l-.124.001a3.387 3.387 0 0 1-2.37-.959Zm14.372-2.568v-26.511a3.399 3.399 0 0 1 3.333-3.419l13.492-.329c1.87-.026 3.444 1.443 3.499 3.32l.777 26.84a3.395 3.395 0 0 1-.965 2.482 3.386 3.386 0 0 1-2.45 1.037h-14.27a3.421 3.421 0 0 1-3.416-3.42Z"/>
    <path fill="#CCC" d="m362.685 187.346 10.575 18.82 1.214 21.165 8.42.535-2.89-25.076-17.342-24.112a8.89 8.89 0 0 0 .023 8.668Z"/>
    <path fill="#3F3D56" d="m374.136 221.273-34.322.47.006.482 34.322-.469-.006-.483Zm-2.082-4.256-32.543.255.004.482 32.542-.254-.003-.483Zm-1.689-4.349-31.129.609.009.482 31.129-.609-.009-.482Zm-.967-4.325-29.893.994.016.482 29.893-.994-.016-.482Zm-1.445-3.851-28.721 1.011.017.482 28.721-1.011-.017-.482Zm-1.919-3.39H338.06v.483h27.974v-.483Zm-1.448-3.384-27.187.319.006.483 27.186-.319-.005-.483Zm-1.451-3.373-26.343.876.016.482 26.343-.875-.016-.483Zm-.959-3.357-26.013.457.008.483 26.014-.458-.009-.482Zm-1.93-3.34-24.908.779.015.482 24.908-.779-.015-.482Zm-.958-2.942-24.689.241.005.483 24.688-.242-.004-.482Z"/>
    <path fill="#A5D7E8" d="M332.795 174.776v-32.703a3.423 3.423 0 0 1 3.417-3.421h15.808a3.422 3.422 0 0 1 3.416 3.421v32.703a3.421 3.421 0 0 1-3.416 3.42h-15.808a3.422 3.422 0 0 1-3.417-3.42Z"/>
    <path fill="#CCC" d="m295.972 222.561-27.984-1.784-.225-.015v-21.68a4.975 4.975 0 0 1 4.967-4.972h27.64a4.975 4.975 0 0 1 4.967 4.972v23.48h-.241l-9.124-.001Z"/>
    <path fill="#3F3D56" d="M334.722 115.461V90.473a3.422 3.422 0 0 1 3.416-3.42h5.211a3.422 3.422 0 0 1 3.416 3.42v24.988a3.422 3.422 0 0 1-3.416 3.42h-5.211a3.423 3.423 0 0 1-3.416-3.42Z"/>
    <path fill="#CCC" d="m340.021 224.973-1.445-21.219-4.336-20.254-1.204-5.545c-2.475-1.685-5.807.189-5.658 3.181l.118 2.364 4.336 20.254 1.445 21.219"/>
    <path fill="#E6E6E6" d="m176.022 214.845-34.227-2.184-1.846-154.075a14.058 14.058 0 0 1 4.087-10.047l36.669-36.708a13.879 13.879 0 0 1 18.793-.862l39.794 33.139a13.92 13.92 0 0 1 5.03 10.905l-1.367 115.873 17.295 24.047.037.051 2.931 25.426-87.196-5.565Z"/>
    <path fill="#A5D7E8" d="M181.775 47.706V40.56a3.423 3.423 0 0 1 3.417-3.42h10.027a3.422 3.422 0 0 1 3.416 3.42v7.145a3.422 3.422 0 0 1-3.416 3.42h-10.027a3.423 3.423 0 0 1-3.417-3.42Z"/>
    <path fill="#3F3D56" d="M160.579 103.163V76.729a3.423 3.423 0 0 1 3.417-3.42h14.844a3.423 3.423 0 0 1 3.417 3.42v26.434a3.422 3.422 0 0 1-3.417 3.42h-14.844a3.422 3.422 0 0 1-3.417-3.42Zm31.104 30.606a2.91 2.91 0 0 0-1.111 2.389l.75 25.55a2.945 2.945 0 0 0 2.83 2.85 2.884 2.884 0 0 0 2.142-.823 2.913 2.913 0 0 0 .896-2.113v-25.35a2.94 2.94 0 0 0-2.178-2.838l-.751-.201a2.901 2.901 0 0 0-2.578.536Zm-43.067 30.313a3.392 3.392 0 0 1-1.043-2.46v-25.35a3.423 3.423 0 0 1 2.536-3.304l.751-.201a3.387 3.387 0 0 1 3.001.623 3.392 3.392 0 0 1 1.294 2.782l-.751 25.55a3.425 3.425 0 0 1-3.418 3.32 3.39 3.39 0 0 1-2.37-.96Zm14.372-2.568v-26.511a3.399 3.399 0 0 1 3.333-3.419l13.492-.329.085-.001a3.425 3.425 0 0 1 3.414 3.321l.777 26.84a3.393 3.393 0 0 1-.965 2.482 3.384 3.384 0 0 1-2.45 1.037h-14.269a3.422 3.422 0 0 1-3.417-3.42Z"/>
    <path fill="#CCC" d="m242.736 179.63 10.575 18.82 1.214 21.165 8.42.536-2.89-25.077-17.342-24.112a8.89 8.89 0 0 0 .023 8.668Z"/>
    <path fill="#3F3D56" d="m254.187 213.558-34.322.469.006.483 34.322-.47-.006-.482Zm-2.082-4.257-32.543.255.004.482 32.542-.254-.003-.483Zm-1.689-4.349-31.129.609.009.482 31.129-.608-.009-.483Zm-.967-4.325-29.893.994.016.482 29.893-.994-.016-.482Zm-1.445-3.851-28.721 1.011.017.482 28.721-1.011-.017-.482Zm-1.919-3.389h-27.974v.482h27.974v-.482Zm-1.448-3.384-27.187.318.006.483 27.187-.319-.006-.482Zm-1.45-3.373-26.344.875.016.483 26.343-.876-.015-.482Zm-.96-3.358-26.013.457.008.483 26.014-.458-.009-.482Zm-1.93-3.34-24.908.779.015.482 24.908-.779-.015-.482Zm-.958-2.942-24.689.242.005.482 24.688-.241-.004-.483Z"/>
    <path fill="#A5D7E8" d="M212.846 167.06v-32.703a3.423 3.423 0 0 1 3.417-3.421h15.808a3.422 3.422 0 0 1 3.416 3.421v32.703a3.421 3.421 0 0 1-3.416 3.42h-15.808a3.422 3.422 0 0 1-3.417-3.42Z"/>
    <path fill="#CCC" d="m176.022 214.845-27.983-1.784-.225-.015v-21.68a4.975 4.975 0 0 1 4.967-4.972h27.64a4.975 4.975 0 0 1 4.967 4.972v23.48h-.241l-9.125-.001Z"/>
    <path fill="#3F3D56" d="M214.773 107.745V82.757a3.423 3.423 0 0 1 3.417-3.42h5.21a3.422 3.422 0 0 1 3.416 3.42v24.988a3.422 3.422 0 0 1-3.416 3.42h-5.21a3.423 3.423 0 0 1-3.417-3.42Z"/>
    <path fill="#CCC" d="m220.072 217.257-1.445-21.218-4.336-20.254-1.204-5.546c-2.475-1.685-5.807.189-5.658 3.181l.118 2.365 4.336 20.254 1.445 21.218"/>
    <path fill="#E6E6E6" d="m56.073 207.13-34.227-2.185L20 50.87a14.06 14.06 0 0 1 4.087-10.047L60.756 4.115a13.88 13.88 0 0 1 18.793-.861l39.794 33.138a13.918 13.918 0 0 1 5.03 10.905l-1.367 115.873 17.296 24.048.036.05 2.931 25.426-87.196-5.564Z"/>
    <path fill="#A5D7E8" d="M61.826 39.99v-7.145a3.422 3.422 0 0 1 3.417-3.42H75.27a3.422 3.422 0 0 1 3.416 3.42v7.145a3.422 3.422 0 0 1-3.416 3.42H65.243a3.422 3.422 0 0 1-3.417-3.42Z"/>
    <path fill="#3F3D56" d="M40.63 95.447V69.013a3.422 3.422 0 0 1 3.417-3.42h14.845a3.422 3.422 0 0 1 3.416 3.42v26.434a3.422 3.422 0 0 1-3.416 3.42H44.047a3.422 3.422 0 0 1-3.417-3.42Zm33.556 61.877a3.427 3.427 0 0 1-3.295-3.318l-.75-25.549a3.391 3.391 0 0 1 1.294-2.782 3.385 3.385 0 0 1 3.001-.624l.75.201a3.423 3.423 0 0 1 2.537 3.304v25.35c0 .936-.37 1.81-1.043 2.461a3.387 3.387 0 0 1-2.494.957Zm-43.964-31.839.75-.201c2.054-.548 4.056 1.039 3.993 3.166l-.75 25.549a3.178 3.178 0 0 1-3.062 3.084 3.177 3.177 0 0 1-3.288-3.177v-25.35c0-1.44.967-2.7 2.357-3.071Zm12.817 28.314v-26.511a3.4 3.4 0 0 1 3.333-3.42l13.492-.329c1.88-.03 3.444 1.443 3.499 3.32l.777 26.84a3.393 3.393 0 0 1-.965 2.482 3.386 3.386 0 0 1-2.45 1.037h-14.27a3.422 3.422 0 0 1-3.416-3.419Z"/>
    <path fill="#CCC" d="m122.787 171.914 10.575 18.82 1.214 21.166 8.42.535-2.89-25.077-17.342-24.112a8.89 8.89 0 0 0 .023 8.668Z"/>
    <path fill="#3F3D56" d="m134.238 205.842-34.322.469.006.483 34.322-.47-.006-.482Zm-2.082-4.256-32.543.254.004.482 32.543-.254-.004-.482Zm-1.689-4.349-31.129.608.01.482 31.128-.608-.009-.482Zm-.967-4.326-29.893.994.016.482 29.893-.993-.016-.483Zm-1.445-3.851-28.721 1.011.017.482 28.721-1.011-.017-.482Zm-1.919-3.389H98.162v.482h27.974v-.482Zm-1.448-3.384-27.187.319.006.482 27.187-.319-.006-.482Zm-1.45-3.373-26.344.876.016.482 26.344-.876-.016-.482Zm-.96-3.358-26.013.458.008.482 26.014-.458-.009-.482Zm-1.93-3.34-24.908.779.015.482 24.908-.779-.015-.482Zm-.958-2.942-24.689.242.005.482 24.688-.241-.004-.483Z"/>
    <path fill="#A5D7E8" d="M92.897 159.344v-32.703a3.422 3.422 0 0 1 3.417-3.42h15.808a3.421 3.421 0 0 1 3.416 3.42v32.703a3.421 3.421 0 0 1-3.416 3.42H96.314a3.422 3.422 0 0 1-3.417-3.42Z"/>
    <path fill="#CCC" d="m56.073 207.13-27.983-1.785-.225-.014v-21.68a4.976 4.976 0 0 1 4.967-4.973h27.64a4.976 4.976 0 0 1 4.967 4.973v23.479h-9.366Z"/>
    <path fill="#3F3D56" d="M94.824 100.029V75.041a3.422 3.422 0 0 1 3.417-3.42h5.21a3.422 3.422 0 0 1 3.416 3.42v24.988a3.421 3.421 0 0 1-3.416 3.42h-5.21a3.422 3.422 0 0 1-3.417-3.42Z"/>
    <path fill="#CCC" d="m100.123 209.541-1.445-21.218-4.335-20.254-1.205-5.546c-2.475-1.685-5.807.189-5.658 3.182l.118 2.364 4.336 20.254 1.445 21.218m-81.409-5.304 1.638-30.518s53.758-11.156 53.758-43.314-87.848-36.096-96.698-21.33l-.264.443c-10.932 18.456-4.76 42.416 13.842 53.074a74.58 74.58 0 0 0 22.806 8.502l-.624 32.419m-29.293-1.862-.062.963 438.31 28.336.062-.963-438.31-28.336Z"/>
  </g>
  <defs>
    <clipPath id="a">
      <path fill="#fff" d="M0 0h481v231H0z" transform="translate(-35)"/>
    </clipPath>
  </defs>
</svg>
