<?xml version="1.0" encoding="utf-8"?>
<!-- Generator: Adobe Illustrator 26.0.1, SVG Export Plug-In . SVG Version: 6.00 Build 0)  -->
<svg version="1.1" id="Calque_1" xmlns="http://www.w3.org/2000/svg" xmlns:xlink="http://www.w3.org/1999/xlink" x="0px" y="0px"
	 viewBox="0 0 1144 727.2" style="enable-background:new 0 0 1144 727.2;" xml:space="preserve">
<style type="text/css">
	.st0{opacity:0.7;fill:#B7CFF0;enable-background:new    ;}
	.st1{fill:#FFFFFF;}
	.st2{fill:#A5D7E8;}
	.st3{opacity:0.1;fill:#A5D7E8;enable-background:new    ;}
	.st4{fill:url(#SVGID_1_);}
	.st5{fill:#65617D;}
	.st6{opacity:0.1;enable-background:new    ;}
	.st7{fill:#444053;}
	.st8{fill:#FBBEBE;}
	.st9{fill:none;stroke:#6C63FF;stroke-miterlimit:10;}
</style>
<path class="st0" d="M1144,461.3c0,19.5-2.3,38.8-6.8,57.8c-4.3,17.9-10.8,35.2-19.3,51.5c0.1,81.4-65.8,147.6-147.3,147.7
	c-0.1,0-0.3,0-0.4,0H217.2c-71,0-135.9-40-167.9-103.3l0,0c-13.3-26.3-20.2-55.3-20.1-84.7C10.7,497.3,0,457.8,0,415.4
	c0-115.4,79.2-209,177-209c3.5,0,6.9,0.1,10.3,0.4C248.6,84.9,387,0,547.7,0c98.8,0,189.2,32.1,258.3,85.1
	c25.4-16.7,54.7-26.2,85.9-26.2c97.8,0,177,93.6,177,209c0,7.4-0.3,14.7-1,21.9C1113.9,327.5,1144,390.2,1144,461.3z"/>
<path class="st1" d="M575.6,205.5c-1.2,6.5-5.2,20.2-18.1,19.8c-9.8-0.2-17.4-8.8-17.2-18.7l3.7-134l1.2-43.7
	c0,0,6.4-12.1,12.7,42.1v0.2l17.6,128.5C575.9,201.7,575.9,203.6,575.6,205.5z"/>
<rect x="548.1" y="218.5" class="st1" width="18.9" height="40.5"/>
<rect x="550.4" y="249.4" class="st1" width="14.6" height="17.8"/>
<path class="st2" d="M558,71.2c-6.6-1.9-11.1-0.5-14,1.4l1.2-43.7c0,0,6.4-12.1,12.7,42.1L558,71.2z"/>
<path class="st2" d="M567,230.6V259h-18.9v-27.8C554.1,228.6,560.8,228.4,567,230.6z"/>
<path class="st1" d="M611.6,320.9c-5.3-3.9-15.8-13.5-9.9-24.9c4.5-8.7,15.6-11.8,24.3-7.2l118.8,62.1l38.8,20.2c0,0,8.1,11-43.4-7
	l-0.2-0.1l-123.2-40.5C614.9,322.9,613.1,322,611.6,320.9z"/>
<rect x="580.1" y="269.8" transform="matrix(0.4384 -0.8988 0.8988 0.4384 70.4098 692.8731)" class="st1" width="18.9" height="40.5"/>
<rect x="564.7" y="272.8" transform="matrix(0.4384 -0.8988 0.8988 0.4384 68.092 672.3068)" class="st1" width="14.6" height="17.8"/>
<path class="st2" d="M739.9,364c4.6-5.1,5.3-9.8,4.9-13.2l38.8,20.2c0,0,8.1,11-43.4-7L739.9,364z"/>
<path class="st2" d="M592.8,302.2l-25.5-12.5l8.3-17l25,12.2C600.3,291.5,597.5,297.6,592.8,302.2z"/>
<path class="st1" d="M503.5,320.9c5.3-3.9,15.8-13.5,9.9-24.9c-4.5-8.7-15.6-11.8-24.3-7.2l-118.8,62.1l-38.8,20.2
	c0,0-8.1,11,43.4-7l0.2-0.1l123.2-40.5C500.2,322.9,501.9,322,503.5,320.9z"/>
<rect x="505.2" y="280.6" transform="matrix(0.8988 -0.4384 0.4384 0.8988 -73.9909 259.6974)" class="st1" width="40.5" height="18.9"/>
<rect x="534.2" y="274.4" transform="matrix(0.8988 -0.4384 0.4384 0.8988 -68.5129 266.5647)" class="st1" width="17.8" height="14.6"/>
<path class="st2" d="M375.1,364c-4.6-5.1-5.3-9.8-4.9-13.2l-38.8,20.2c0,0-8.1,11,43.4-7L375.1,364z"/>
<path class="st2" d="M522.3,302.2l25.5-12.5l-8.3-17l-25,12.2C514.8,291.5,517.6,297.6,522.3,302.2z"/>
<polygon class="st1" points="574.6,717.4 537.4,717.4 549.2,279.8 562.8,279.8 "/>
<circle class="st2" cx="557.5" cy="274.5" r="12.4"/>
<path class="st1" d="M850.7,182.4c-0.8,4.4-3.5,13.6-12.2,13.4c-6.7-0.3-11.9-5.9-11.6-12.6l2.5-90.7l0.8-29.6c0,0,4.3-8.2,8.6,28.5
	v0.1l11.9,87C850.9,179.9,850.9,181.2,850.7,182.4z"/>
<rect x="832" y="191.2" class="st1" width="12.8" height="27.4"/>
<rect x="833.6" y="212.1" class="st1" width="9.9" height="12"/>
<path class="st2" d="M838.8,91.6c-4.5-1.3-7.5-0.3-9.5,0.9l0.8-29.6c0,0,4.3-8.2,8.6,28.5L838.8,91.6z"/>
<path class="st2" d="M844.9,199.4v19.2H832v-18.8C836.1,198,840.7,197.9,844.9,199.4z"/>
<path class="st1" d="M875,260.5c-3.6-2.6-10.7-9.1-6.7-16.8c3.2-5.9,10.6-8.1,16.5-4.9l80.4,42l26.2,13.7c0,0,5.5,7.5-29.4-4.7h-0.1
	l-83.4-27.4C877.2,261.9,876,261.3,875,260.5z"/>
<rect x="853.8" y="226" transform="matrix(0.4384 -0.8988 0.8988 0.4384 267.6818 907.7119)" class="st1" width="12.8" height="27.4"/>
<rect x="843.3" y="228" transform="matrix(0.4384 -0.8988 0.8988 0.4384 266.1142 893.8082)" class="st1" width="9.9" height="12"/>
<path class="st2" d="M961.9,289.7c3.1-3.5,3.6-6.6,3.3-8.9l26.2,13.7c0,0,5.5,7.5-29.4-4.7L961.9,289.7z"/>
<path class="st2" d="M862.3,247.8l-17.3-8.4l5.6-11.5l16.9,8.2C867.4,240.6,865.5,244.8,862.3,247.8z"/>
<path class="st1" d="M801.9,260.5c3.6-2.6,10.7-9.1,6.7-16.8c-3.2-5.9-10.6-8.1-16.5-4.9l-80.4,42l-26.2,13.7c0,0-5.5,7.5,29.4-4.7
	h0.1l83.4-27.4C799.7,261.9,800.8,261.3,801.9,260.5z"/>
<rect x="803" y="233.3" transform="matrix(0.8988 -0.4384 0.4384 0.8988 -22.4041 382.2974)" class="st1" width="27.4" height="12.8"/>
<rect x="822.6" y="229" transform="matrix(0.8988 -0.4384 0.4384 0.8988 -18.6963 386.9392)" class="st1" width="12" height="9.9"/>
<path class="st2" d="M715,289.7c-3.1-3.5-3.6-6.6-3.3-8.9l-26.2,13.7c0,0-5.5,7.5,29.4-4.7L715,289.7z"/>
<path class="st2" d="M814.6,247.8l17.3-8.4l-5.6-11.5l-16.9,8.2C809.5,240.6,811.4,244.8,814.6,247.8z"/>
<polygon class="st1" points="850,528.7 824.7,533.2 832.8,232.7 842,232.7 "/>
<circle class="st2" cx="838.5" cy="229.1" r="8.4"/>
<path class="st1" d="M277.5,182.4c-0.8,4.4-3.5,13.6-12.2,13.4c-6.7-0.3-11.9-5.9-11.6-12.6l2.5-90.7L257,63c0,0,4.3-8.2,8.6,28.5
	v0.1l11.9,87C277.7,179.9,277.7,181.2,277.5,182.4z"/>
<rect x="258.9" y="191.2" class="st1" width="12.8" height="27.4"/>
<rect x="260.5" y="212.1" class="st1" width="9.9" height="12"/>
<path class="st2" d="M265.6,91.6c-4.5-1.3-7.5-0.3-9.5,0.9L257,63c0,0,4.3-8.2,8.6,28.5L265.6,91.6z"/>
<path class="st2" d="M271.7,199.4v19.2h-12.8v-18.8C263,198,267.5,197.9,271.7,199.4z"/>
<path class="st1" d="M301.9,260.5c-3.6-2.6-10.7-9.1-6.7-16.8c3.2-5.9,10.5-8.1,16.4-4.9l80.4,42l26.2,13.7c0,0,5.5,7.5-29.4-4.7
	h-0.1l-83.4-27.4C304.1,261.9,302.9,261.3,301.9,260.5z"/>
<rect x="280.6" y="226" transform="matrix(0.4384 -0.8988 0.8988 0.4384 -54.2221 392.5635)" class="st1" width="12.8" height="27.4"/>
<rect x="270.2" y="228" transform="matrix(0.4384 -0.8988 0.8988 0.4384 -55.7883 378.651)" class="st1" width="9.9" height="12"/>
<path class="st2" d="M388.7,289.7c3.1-3.5,3.6-6.6,3.3-8.9l26.2,13.7c0,0,5.5,7.5-29.4-4.7L388.7,289.7z"/>
<path class="st2" d="M289.1,247.8l-17.3-8.4l5.6-11.5l16.9,8.2C294.2,240.6,292.3,244.8,289.1,247.8z"/>
<path class="st1" d="M228.7,260.5c3.6-2.6,10.7-9.1,6.7-16.8c-3.2-5.9-10.6-8.1-16.4-4.9l-80.4,42l-26.2,13.7c0,0-5.5,7.5,29.4-4.7
	h0.1l83.4-27.4C226.5,261.9,227.7,261.3,228.7,260.5z"/>
<rect x="229.9" y="233.3" transform="matrix(0.8988 -0.4384 0.4384 0.8988 -80.4102 131.039)" class="st1" width="27.4" height="12.8"/>
<rect x="249.5" y="229" transform="matrix(0.8988 -0.4384 0.4384 0.8988 -76.7054 135.6864)" class="st1" width="12" height="9.9"/>
<path class="st2" d="M141.9,289.7c-3.1-3.5-3.6-6.6-3.3-8.9l-26.2,13.7c0,0-5.5,7.5,29.4-4.7L141.9,289.7z"/>
<path class="st2" d="M241.4,247.8l17.3-8.4l-5.6-11.5l-16.9,8.2C236.4,240.6,238.3,244.8,241.4,247.8z"/>
<polygon class="st1" points="276.8,528.7 251.7,528.7 259.7,232.7 268.8,232.7 "/>
<circle class="st2" cx="265.3" cy="229.1" r="8.4"/>
<path class="st1" d="M1112.7,609.6c-17.6,64.2-75.9,108.7-142.4,108.7H217.2c-71,0-135.9-40-167.9-103.3l0,0
	c0,0,109.1-151,392.6-52.3c235.3,81.9,343.9,4.5,374-24.2c6.6-6.2,15.4-9.5,24.5-9.1C898,532,1097.8,546,1112.7,609.6L1112.7,609.6z
	"/>
<ellipse class="st3" cx="209.1" cy="712.9" rx="121.9" ry="14.3"/>
<linearGradient id="SVGID_1_" gradientUnits="userSpaceOnUse" x1="241.3739" y1="-83.2101" x2="241.3739" y2="235.8603" gradientTransform="matrix(1 0 0 -1 -28 641.61)">
	<stop  offset="0" style="stop-color:#808080;stop-opacity:0.25"/>
	<stop  offset="0.54" style="stop-color:#808080;stop-opacity:0.12"/>
	<stop  offset="1" style="stop-color:#808080;stop-opacity:0.1"/>
</linearGradient>
<path class="st4" d="M270.2,700.1c0,0-7.9-0.9-13.1-4.8l-0.4-0.3c0.3-0.5,0.5-1,0.7-1.5c-0.6-1.1-0.8-2.3-0.9-3.5
	c0-1.1-0.2-2.3-0.7-3.3v-5.6c0,0-1.7-1.8-1.9-6.5s-0.3-27.5-0.3-27.5c-0.3-1.2-0.3-2.4-0.2-3.6c0.2-2.6,0.2-3.6,0.2-3.6
	c-0.6-1.5-0.7-3.2-0.5-4.8c0.5-2-1.2-4.3-1.2-4.3l2.6-12.6c0,0,1.4-43.4-2.7-56.5v-0.1c0,0,0-0.1,0-0.2c0.4-8.4-4.8-22.5-1.9-32.2
	s3.2-11.9,3.2-11.9s-12.8-32.1-16-39.7c-2.2-5.2-4.5-11-6.8-14.3c-0.2-0.3-0.4-0.6-0.6-0.8c-0.1-0.1-0.2-0.3-0.3-0.4
	c0.7-1.2,1.1-2.5,1.2-3.8c0.2-2.4-0.2-5.1,1.6-6.8c0.7-0.5,1.4-1,2.1-1.4c2.7-1.8,4.1-4.9,3.8-8.1c-0.4-2.5-1.8-4.6-3.4-6.6
	c1.1-6.2-1-12.5-5.6-16.8l0,0c0-0.3,0-0.6,0-0.9c0-2.3-0.7-4.5-2-6.4l0.5,0.3c-0.3-0.2-0.5-0.5-0.8-0.7c-0.4-0.4-0.8-0.7-1.3-1
	c-7.7-5.3-17.8-5.8-26-1.4c-2,1.1-3.8,2.6-5.1,4.5c-2.7,4.1-2,9.5-3.4,14.1c-1.3,4.5-4.5,8.2-7.1,12.1s-4.8,8.5-3.8,13.1
	c0.7,3.3,3.1,6.3,3,9.7c-0.2,3.7-3.1,6.6-6.7,7.1h-0.1c-0.3,0.1-0.7,0.1-1,0.1c3.2,2.2,7.1,3,11,3.5c-0.1,0.3-0.2,0.6-0.2,0.9
	c-3.1,11.8-5.9,26.8-5.9,26.8s1.9,15.2-2.1,27.1s-3.4,36.4-3.4,36.4s10.9-5.6,11.6-2s0,4.6,0,4.6s2.2,1.1,4.9,2.1l-0.1,1.5l-0.5,6.5
	c-0.2,1.4,0,2.8,0.6,4c0.9,1.8,0,6.8,0,6.8s-0.8,0.5,0,2.8s-0.6,5.6-0.6,5.6s-1,12.4-1.1,15s-3.4,10.1-3.4,10.1s2.9,3.6,0,4.1
	s-3.2,5-3.2,5s-3.4,2.8-3.4,3.8c0,0-15.3,15.5-18.9,41.2c0,0-3.6,3.3-3.1,6.5c0.3,1.8-0.3,2.4-0.9,2.6c0.6,0.1,1.3,0.5,1,2
	c-0.5,2.6-1.9,8.3-1.9,8.3h0.2l0,0c-2.8,3.2-6.9,8.6-7.5,13.4c0,0.2,0,0.4-0.1,0.6l-1.5,3.5l13.5,6l1.2-1.8c0,0,6,6.8,12.8,8.3
	c1.2,0.3,2.4,0.4,3.6,0.4c3.8-0.1,7.5-0.8,11.1-2.2c0,0,4.9-6.1-7.9-7.3c0,0-7.5-8.6-6.8-12.2c0.3-1.5,0.4-3.1,0.5-4.6
	c0-0.3,0-0.7,0-1l0.9,0.1l0.2-2.8c0.4-0.5,0.6-1.1,0.5-1.7c0-1.2-1-1.3,0-2s1,0,1-1.7s-0.7-1.2,0.9-2.8s-0.2-4.6-0.2-4.6
	s3.6-2.7,3.4-6.1s11.4-25.5,13.8-26.3s2.6-5.1,2.6-5.1s3.2,0.7,4.3,0s4.3-5.8,4.3-5.8s13-32.7,13.1-45.1l0.9-2.8
	c0,0,4.9,6.5,4.3,11.1s3.8,7.9,3.8,7.9v14.1c0.5,2.4,0.8,4.9,0.8,7.4c-0.2,2.3,2,4.6,1.2,6.6s0,5.5,0,5.5s-0.2,4.6,0,6
	s-0.7,16.5,3.8,23.2c0,0,1.9,4.8,0,7.9s1.7,6.3,1.7,6.3s-2.2,3.6,0,6.3c1.3,1.7,1.8,3.8,1.6,5.9c-0.9,3.4-1.5,7.8-0.1,10.8v0.1
	l0.4,4.7l13.1-1v-2.6c0,0,8.9,2.4,17.2,1.1c4.5-0.7,8.8-2.5,11.4-6.2C279.2,705.8,284.5,696.7,270.2,700.1z"/>
<path class="st5" d="M276.8,705.8c-2.5,3.8-6.7,5.5-11,6.2c-8,1.3-16.6-1.1-16.6-1.1v2.7l-12.6,1l-0.4-4.7v-0.1
	c-1.5-3.1-0.8-7.6,0.1-11c0.4-1.6,0.9-3.2,1.6-4.7c0,0,10.9-9.2,14.5-2.3c0.8,1.4,1.9,2.7,3.2,3.6c5,3.8,12.6,4.8,12.6,4.8
	C281.9,696.8,276.8,705.8,276.8,705.8z"/>
<path class="st6" d="M243.2,696.8c0,0,0,8.6,6.2,8.4s7.1-3.4,5.1-5.6c-1.3-1.6-2.5-3.3-3.5-5.1L243.2,696.8z"/>
<path class="st5" d="M189.4,722.6c-3.4,1.4-7,2.1-10.7,2.2c-1.2,0-2.3-0.1-3.4-0.4c-6.6-1.5-12.3-8.2-12.3-8.2l-1.1,1.8l-13-5.9
	l1.5-3.5l0.1-0.6c0.6-4.7,4.5-10.1,7.2-13.3c1.5-1.8,2.6-2.8,2.6-2.8l15.6,2.3c0,0,0.1,2,0,4.4c-0.1,1.5-0.2,3.1-0.5,4.6
	c-0.6,3.6,6.6,12.2,6.6,12.2C194.1,716.5,189.4,722.6,189.4,722.6z"/>
<path class="st7" d="M158.1,684.4c-0.3,0.1-0.5,0.1-0.8,0.1C157.5,684.4,157.8,684.4,158.1,684.4z"/>
<path class="st6" d="M175.7,694.2c0,0,0.1,2,0,4.4l-18.4-3c0,0,0.1-0.3,0.2-0.9c1.5-1.8,2.6-2.8,2.6-2.8L175.7,694.2z"/>
<path class="st6" d="M255.4,695.5c-2.8,6.4-19.3,4.9-19.3,4.9c0.1-0.5,0.1-1,0.1-1.6c0.4-1.6,0.9-3.2,1.6-4.7c0,0,10.9-9.2,14.5-2.3
	C253,693.3,254.1,694.5,255.4,695.5z"/>
<path class="st7" d="M255.7,693.7c-1.6,7.4-19.6,5.8-19.6,5.8c0.3-2.2-0.2-4.4-1.5-6.3c-2.1-2.6,0-6.2,0-6.2s-3.5-3.1-1.6-6.3
	s0-7.9,0-7.9c-4.3-6.6-3.5-21.7-3.6-23s0-5.9,0-5.9s-0.8-3.5,0-5.4s-1.3-4.3-1.1-6.6c0-2.5-0.3-5-0.8-7.4v-14c0,0-4.3-3.3-3.6-7.9
	s-4.1-11-4.1-11l-0.8,2.8c-0.2,12.3-12.7,44.9-12.7,44.9s-3.1,5.1-4.1,5.8s-4.1,0-4.1,0s-0.2,4.3-2.5,5.1s-13.5,22.7-13.3,26.2
	s-3.3,6.1-3.3,6.1s1.6,3,0.2,4.6s-0.8,1.2-0.8,2.8s0,1-1,1.6s0,0.8,0,2c0,0.6-0.1,1.2-0.5,1.6l-0.1,2.8l-19.3-3.1
	c0,0,1.3-5.6,1.8-8.2c0.3-1.5-0.4-2-1-2c0.6-0.2,1.1-0.8,0.8-2.6c-0.5-3.1,3-6.4,3-6.4c3.5-25.5,18.3-41,18.3-41
	c0-1,3.3-3.8,3.3-3.8s0.3-4.5,3.1-4.9s0-4.1,0-4.1s3.1-7.4,3.3-10s1.1-15,1.1-15s1.4-3.3,0.6-5.6s0-2.8,0-2.8s0.9-4.9,0-6.8
	c-0.6-1.2-0.8-2.6-0.6-4l0.5-6.5l0.7-9.7c0,0,51.2-8.8,56.9-1.8c0.6,0.9,1.1,1.8,1.3,2.9c4,13,2.6,56.2,2.6,56.2l-2.5,12.5
	c0,0,1.6,2.3,1.2,4.3c-0.2,1.6-0.1,3.2,0.5,4.8c0,0,0,1-0.2,3.6c-0.1,1.2-0.1,2.4,0.2,3.6c0,0,0.2,22.7,0.3,27.3s1.8,6.4,1.8,6.4
	v5.6c0.4,1,0.7,2.2,0.6,3.3C254.9,691.4,255.2,692.6,255.7,693.7z"/>
<path class="st6" d="M178.7,724.8c-1.2,0-2.3-0.1-3.4-0.4c-6.6-1.5-12.3-8.2-12.3-8.2l-1.1,1.8l-13-5.9l1.5-3.5l0.1-0.6l13.4,6.8
	C163.7,714.9,174.4,720,178.7,724.8z"/>
<path class="st6" d="M265.8,712c-8,1.3-16.6-1.1-16.6-1.1v2.7l-12.6,1l-0.4-4.7c4,0.1,10.4,0.1,13.2-0.1
	C254.9,709.8,260.4,710.6,265.8,712z"/>
<path class="st6" d="M164.5,680.1c0.7-0.1,1.3,0,1.9,0.2c0.6,0.4,1.3,0.8,1.8,1.3c0.4,0.2,0.8,0.5,1.2,0.8c0.5,0.5,0.7,1.2,1.2,1.6
	c0.9,0.9,2.3,0.7,3.5,1.1c0.1,0,0.3,0.1,0.3,0.2s-0.1,0.2-0.2,0.3c-0.6,0.3-1.3,0.3-1.9,0c-0.6-0.3-1.1-0.7-1.6-1.2
	c-0.9-0.8-2-1.5-3.1-1.9c-1.6-0.6-4.2-0.8-5.2-2.3C162.9,680,163.9,680.2,164.5,680.1z"/>
<path class="st6" d="M163.2,683.6c0.3,0.1,0.7,0.2,1,0.4l1.7,0.8c-1.2,0.1-2.4-0.2-3.4-0.8c-0.4-0.2-0.7-0.3-1.1-0.5
	C162,683.5,162.6,683.5,163.2,683.6z"/>
<path class="st6" d="M165.4,686.5c0.4,0,0.7,0,1.1,0.1c0.6,0.2,1.2,0.6,1.7,1c1.2,1,2.8,1.5,4.4,1.5c-0.3,0.1-0.7,0.2-1,0.2h-3.5
	c-0.9,0.1-1.8-0.2-2.6-0.6c-0.6-0.3-3.1-1-3.1-1.8S164.9,686.5,165.4,686.5z"/>
<path class="st6" d="M246,690.7c1.1,0.1,2.2,0.2,3.3,0.1c1.1,0,2.3-0.4,3.2-1c1-0.7,0.8-1.5-0.5-1.5c-1.1,0.1-2.2,0.3-3.2,0.8
	c-0.5,0.2-1,0.5-1.5,0.8C247,689.9,246.2,690.7,246,690.7z"/>
<path class="st6" d="M249.9,692.5c-0.1,0.4-0.5,0.6-0.9,0.8c-0.9,0.4-1.9,0.6-2.9,0.6c-0.2,0-1,0-0.9-0.4s1.1-0.3,1.4-0.3
	C247.8,693,248.9,692.8,249.9,692.5z"/>
<path class="st6" d="M240.1,691.8c1.4-0.2,2.8,0.1,4,0.8c0,0,0.1,0.1,0.1,0.1c0,0,0,0.1,0,0.1c-0.3,0.5-0.8,0.8-1.3,0.7
	c-0.5-0.1-1.1-0.2-1.6-0.4c-0.8-0.3-1.7-0.4-2.6-0.4c-0.4,0-0.8,0-1.2,0c-1.2-0.2-0.8-0.7,0.1-0.8
	C238.4,691.9,239.2,691.8,240.1,691.8z"/>
<path class="st6" d="M194.8,627.2c-1.6-1.2-3.6-1.8-5.6-1.8C191.3,625.2,193.3,625.9,194.8,627.2z"/>
<path class="st6" d="M193.3,620.5c1.5,0,2.9,0.4,4.2,1.2l-1.5-0.4c-0.9-0.3-1.9-0.5-2.8-0.6c-0.6,0-1.1,0-1.6-0.1s-1.2-0.2-1.9-0.2
	C190.9,620.5,192.1,620.5,193.3,620.5z"/>
<path class="st6" d="M198.2,623.7c0.5,0.1,1,0.3,1.1,0.8c0-0.3-3.3-1.2-3.7-1.3c-0.7-0.2-2.8-1.2-3.3-0.5
	C194.3,623.1,196.3,623.3,198.2,623.7z"/>
<path class="st6" d="M202.8,609.1c2.2-0.7,4.1-2,5.7-3.6c0,1.5-0.8,2.9-2.1,3.7c-1.3,0.8-2.7,1.3-4.1,1.5c-1.5,0.2-2.9,0.7-4.2,1.3
	c-0.6,0.3-2.7,2.2-3.3,2.2c-0.8-0.1,0.5-1.4,0.8-1.6C197.6,610.8,200.4,610,202.8,609.1z"/>
<path class="st6" d="M243.2,630.4c-0.7-0.2-9.2,1.4-8.7-0.2c0.3-1,3.1-0.6,3.8-0.6C239.9,629.6,241.6,629.9,243.2,630.4z"/>
<path class="st8" d="M234,433.6c0,10.4-8.4,18.8-18.8,18.8c-10.4,0-18.8-8.4-18.8-18.8s8.4-18.8,18.8-18.8c4.9,0,9.6,1.9,13.1,5.3
	C232,423.7,234,428.6,234,433.6z"/>
<path class="st9" d="M224.9,441.3c0,0-6.1,17.8-2.6,21.4s-24.9,5.8-24.9,5.8s11.9-21.2,10.7-26.5S224.9,441.3,224.9,441.3z"/>
<path class="st6" d="M250.3,562.6c0,0.4,0,0.8,0,1.2c-0.3,8.4-15.3,25.3-18.8,22.5s-27-8.4-27-8.4s-3.5-5.4-7.1-5.4
	c-2.1-0.2-4.1-0.7-5.9-1.5l0.7-9.7c0,0,51.2-8.8,56.8-1.7C249.6,560.6,250,561.6,250.3,562.6z"/>
<path class="st5" d="M250.3,562.3c-0.2,4.2-4,10.6-8.2,15.5s-8.8,8.4-10.5,7c-1.3-0.8-2.6-1.5-4.1-1.9c-7.8-2.9-22.9-6.5-22.9-6.5
	s-3.5-5.4-7.1-5.4s-10.5-3.6-10.5-3.6s0.7-1,0-4.6s-11.2,2-11.2,2s-0.5-24.4,3.3-36.2s2-27,2-27s2.7-14.9,5.6-26.7
	c1.8-7.1,3.6-13,5.1-13.9c3.8-2.5,23.5,0,23.5,0s8.2,0.2,11.4,1c1,0.4,1.8,1.1,2.4,1.9c0.2,0.3,0.4,0.5,0.6,0.8
	c2.2,3.3,4.4,9,6.6,14.2c3.1,7.6,15.5,39.5,15.5,39.5s-0.3,2.1-3.1,11.8S250.6,553.9,250.3,562.3z"/>
<path class="st8" d="M236.1,572l5.9,5.8c0,0,5.4,18.7-1.6,17.1s-13-12-13-12L236.1,572z"/>
<path class="st6" d="M251.1,519.8c-14-0.2-17.6-19.8-17.6-19.8s-1-19.4-2.8-23c-1-2-1.5-6.9-1.6-10.9c2.2,3.3,4.4,9,6.6,14.2
	C238.8,487.9,251.1,519.8,251.1,519.8z"/>
<path class="st5" d="M251.6,518.4c-14-0.2-17.6-19.8-17.6-19.8s-1-19.4-2.8-23c-1-2-1.5-6.9-1.6-10.9c2.2,3.3,4.4,9,6.6,14.2
	C239.2,486.4,251.6,518.4,251.6,518.4z"/>
<path class="st6" d="M226.5,470c0,0-4.1-11.2-10.9,0s-6.9,25.3-6.9,25.3l-1.1,30.9c0,0,2.1,4.1,2.1,6.4s4,8.9,4,8.9s1,13,4.8,15.1
	l3.6,10.7c0,0,0.2,7.1,2.6,9.9s1.2,7.1,1.2,7.1l14.6-5.1c0,0-1.6,0.6,0-3.8s-1-10.2-1-10.2s-9.4-20.4-10.5-23.4s-2.8-6.4-2.1-9.9
	s0.1-40.2,1-45.8C228.7,480.8,226.5,470,226.5,470z"/>
<path class="st7" d="M228.1,468.5c0,0-4.1-11.2-10.9,0s-6.9,25.3-6.9,25.3l-1.1,30.9c0,0,2.1,4.1,2.1,6.4s4,8.9,4,8.9s1,13,4.8,15.1
	l3.6,10.7c0,0,0.2,7.1,2.6,9.9s1.2,7.1,1.2,7.1l14.6-5.1c0,0-1.6,0.6,0-3.8s-1-10.2-1-10.2s-9.4-20.4-10.5-23.4s-2.8-6.4-2.1-9.9
	c0.7-3.5,0.1-40.2,1-45.8S228.1,468.5,228.1,468.5z"/>
<path class="st6" d="M228.3,565.3c0.6,0.1,1.2,0.3,1.8,0.5c0.5,0.2,0.8,0.6,1.3,0.8c0.5,0.3,1.1,0.4,1.7,0.5c-0.7,0-1.3,0.1-2,0.1
	c-0.4,0-0.8,0-1.2-0.2c-0.4-0.2-0.7-0.4-1-0.7c-0.4-0.3-0.8-0.5-1.3-0.7c-0.4-0.2-0.7-0.2-0.9-0.6
	C227.3,565.1,227.8,565.2,228.3,565.3z"/>
<path class="st6" d="M233.9,569.7c0.6,0,1.2-0.1,1.9-0.2c0.9,0,1.8,0,2.7,0.1c-1.3,0.7-2.8,0.9-4.3,0.8c-0.4-0.1-0.9-0.1-1.3,0
	c-0.5,0.2-1.8,1.7-1.9,0.4S233.1,569.7,233.9,569.7z"/>
<path class="st6" d="M226.3,413.9l-2.3-1.7c0.3,0.1,0.5,0.2,0.7,0.3c0.5,0.3,1,0.6,1.3,1c0.3,0.2,0.5,0.5,0.8,0.7L226.3,413.9z"/>
<path class="st6" d="M229,463.8c-0.4,1-1.1,1.8-2,2.4c-0.5,0.4-1.1,0.6-1.8,0.7c-0.9,0.1-1.8,0-2.7-0.3c-1.1-0.3-2.2-0.6-3.2-1
	c-2.1-0.9-4.2-1.6-6.4-2.2c-3.3-0.8-7.1-0.5-9.5,1.9c-2.1,2.1-2.6,5.4-4.6,7.5c-2.8,2.8-7.3,2.7-11.2,2.1l-0.9-0.1
	c1.8-7.1,3.6-13,5.1-13.9c3.8-2.5,23.5,0,23.5,0s8.2,0.2,11.4,1C227.6,462.3,228.4,463,229,463.8z"/>
<path class="st6" d="M196.5,433.6c0-10.4,8.4-18.8,18.8-18.8c4.9,0,9.6,1.9,13.1,5.3l0,0c0.1,3.3-0.6,6.6,0.3,9.8
	c0.9,2.9,3,5.3,4.9,7.7c-2.3,10.1-12.3,16.5-22.4,14.2C202.6,450,196.5,442.4,196.5,433.6z"/>
<path class="st7" d="M226.8,413.2c-7.5-6.8-18.4-8-27.2-3.1c-2,1.1-3.6,2.6-4.9,4.5c-2.6,4.1-1.9,9.4-3.3,14.1
	c-1.3,4.5-4.3,8.1-6.9,12s-4.6,8.5-3.7,13c0.7,3.3,3,6.3,2.9,9.6c-0.2,3.9-3.3,7-7.2,7.1c3.2,2.2,7.1,3,11,3.5s8.5,0.7,11.2-2.1
	c2.1-2.1,2.6-5.4,4.6-7.5c2.4-2.4,6.2-2.7,9.5-1.9s6.3,2.3,9.6,3.2c0.9,0.3,1.8,0.4,2.7,0.3c2.8-0.4,4.4-3.5,4.7-6.3
	c0.2-2.3-0.2-5.1,1.5-6.7c0.6-0.5,1.3-1,2-1.4c2.6-1.8,4-4.9,3.6-8.1c-0.8-5.6-6.8-9.1-8.4-14.5c-0.9-3.1-0.2-6.5-0.3-9.8
	s-1.3-7-4.4-8.1"/>
<path class="st6" d="M236.7,443.5c-0.8-5.6-6.8-9.1-8.4-14.5c-0.9-3.1-0.2-6.5-0.3-9.8c0-2.3-0.7-4.5-2-6.4l0.5,0.3
	c-0.2-0.2-0.5-0.5-0.8-0.7c-0.4-0.4-0.8-0.7-1.3-1c-0.3-0.2-0.6-0.4-0.9-0.6l0.4,0.4l-0.5-0.3c1.3,1.9,2,4.1,2,6.4
	c0,3.3-0.7,6.6,0.3,9.8c1.6,5.4,7.6,8.9,8.4,14.5c0.4,3.2-1,6.3-3.6,8.1c-0.7,0.4-1.4,0.9-2,1.4c-1.7,1.7-1.3,4.4-1.5,6.7
	c-0.2,2.8-1.9,5.9-4.6,6.3c-0.9,0.1-1.8,0-2.7-0.3c-3.3-0.8-6.3-2.5-9.6-3.2s-7.1-0.5-9.5,1.9c-2.1,2.1-2.6,5.4-4.6,7.5
	c-2.8,2.8-7.3,2.7-11.2,2.1c-2.6-0.3-5.1-0.9-7.6-1.7c-0.3,0.1-0.7,0.1-1,0.1c3.2,2.2,7.1,3,11,3.5s8.5,0.7,11.2-2.1
	c2.1-2.1,2.6-5.4,4.6-7.5c2.4-2.4,6.2-2.7,9.5-1.9s6.3,2.3,9.6,3.2c0.9,0.3,1.8,0.4,2.7,0.3c2.8-0.4,4.4-3.5,4.7-6.3
	c0.2-2.3-0.1-5.1,1.5-6.7c0.6-0.5,1.3-1,2-1.4C235.7,449.7,237.1,446.6,236.7,443.5z"/>
</svg>
